<?xml version="1.0" encoding="UTF-8" standalone="no"?>
<svg
   width="353.0365"
   height="30.000118"
   viewBox="0 0 353.0365 30.000118"
   fill="none"
   version="1.1"
   id="svg39"
   sodipodi:docname="icones.svg"
   inkscape:version="1.3.2 (091e20e, 2023-11-25, custom)"
   xmlns:inkscape="http://www.inkscape.org/namespaces/inkscape"
   xmlns:sodipodi="http://sodipodi.sourceforge.net/DTD/sodipodi-0.dtd"
   xmlns="http://www.w3.org/2000/svg"
   xmlns:svg="http://www.w3.org/2000/svg">
  <defs
     id="defs39" />
  <sodipodi:namedview
     id="namedview39"
     pagecolor="#ffffff"
     bordercolor="#666666"
     borderopacity="1.0"
     inkscape:showpageshadow="2"
     inkscape:pageopacity="0.0"
     inkscape:pagecheckerboard="0"
     inkscape:deskcolor="#d1d1d1"
     inkscape:zoom="1.0714286"
     inkscape:cx="461.06667"
     inkscape:cy="-73.266667"
     inkscape:window-width="1920"
     inkscape:window-height="1009"
     inkscape:window-x="-8"
     inkscape:window-y="-8"
     inkscape:window-maximized="1"
     inkscape:current-layer="svg39" />
  <path
     d="M 1.8258,27.901 C 0.819,27.901 0,27.084 0,26.08 V 3.92 C 0,2.916 0.819,2.1 1.8258,2.1 h 26.4217 c 1.007,0 1.825,0.816 1.825,1.82 v 22.16 c 0,1.004 -0.818,1.821 -1.825,1.821 z m 0,-24.681 C 1.4388,3.22 1.127,3.531 1.127,3.917 v 22.159 c 0,0.386 0.3156,0.697 0.6988,0.697 h 26.4217 c 0.387,0 0.698,-0.311 0.698,-0.697 V 3.917 c 0,-0.386 -0.315,-0.697 -0.698,-0.697 z"
     fill="#131c50"
     id="path8" />
  <path
     d="m 8.8885,7.795 c 0.6038,0 1.0933,-0.488 1.0933,-1.091 0,-0.602 -0.4895,-1.09 -1.0933,-1.09 -0.6037,0 -1.0932,0.488 -1.0932,1.09 0,0.603 0.4895,1.091 1.0932,1.091 z"
     fill="#131c50"
     id="path9" />
  <path
     d="m 5.1242,7.795 c 0.6038,0 1.0933,-0.488 1.0933,-1.091 0,-0.602 -0.4895,-1.09 -1.0933,-1.09 -0.6037,0 -1.0932,0.488 -1.0932,1.09 0,0.603 0.4895,1.091 1.0932,1.091 z"
     fill="#131c50"
     id="path10" />
  <path
     d="m 12.3485,7.795 c 0.6038,0 1.0932,-0.488 1.0932,-1.091 0,-0.602 -0.4894,-1.09 -1.0932,-1.09 -0.6037,0 -1.0932,0.488 -1.0932,1.09 0,0.603 0.4895,1.091 1.0932,1.091 z"
     fill="#131c50"
     id="path11" />
  <path
     d="M 29.5055,9.912 H 0.5598 v 1.124 h 28.9457 z"
     fill="#131c50"
     id="path12" />
  <path
     d="m 10.1621,17.488 -3.9296,1.42 3.9296,1.409 v 1.54 L 4.5532,19.676 v -1.529 l 5.6089,-2.207 z"
     fill="#131c50"
     id="path13" />
  <path
     d="M 18.0095,13.737 12.773,23.88 h -1.5741 l 5.2366,-10.143 z"
     fill="#131c50"
     id="path14" />
  <path
     d="m 19.0505,15.944 5.583,2.207 v 1.529 l -5.583,2.181 v -1.54 l 3.918,-1.409 -3.918,-1.42 z"
     fill="#131c50"
     id="path15" />
  <path
     d="m 108.2455,27.9 h -26.418 c -1.007,0 -1.826,-0.817 -1.826,-1.821 V 3.921 c 0,-1.004 0.819,-1.821 1.826,-1.821 h 26.418 c 1.007,0 1.826,0.817 1.826,1.821 v 22.155 c 0,1.004 -0.819,1.82 -1.826,1.82 z M 81.8275,3.224 c -0.387,0 -0.699,0.311 -0.699,0.697 v 22.155 c 0,0.385 0.315,0.696 0.699,0.696 h 26.418 c 0.387,0 0.699,-0.311 0.699,-0.696 V 3.921 c 0,-0.386 -0.315,-0.697 -0.699,-0.697 z"
     fill="#131c50"
     id="path16" />
  <path
     d="m 88.8925,7.794 c 0.604,0 1.094,-0.488 1.094,-1.09 0,-0.602 -0.49,-1.09 -1.094,-1.09 -0.603,0 -1.093,0.488 -1.093,1.09 0,0.602 0.49,1.09 1.093,1.09 z"
     fill="#131c50"
     id="path17" />
  <path
     d="m 85.1295,7.794 c 0.603,0 1.093,-0.488 1.093,-1.09 0,-0.602 -0.49,-1.09 -1.093,-1.09 -0.604,0 -1.094,0.488 -1.094,1.09 0,0.602 0.49,1.09 1.094,1.09 z"
     fill="#131c50"
     id="path18" />
  <path
     d="m 92.3485,7.794 c 0.604,0 1.093,-0.488 1.093,-1.09 0,-0.602 -0.489,-1.09 -1.093,-1.09 -0.603,0 -1.093,0.488 -1.093,1.09 0,0.602 0.49,1.09 1.093,1.09 z"
     fill="#131c50"
     id="path19" />
  <path
     d="m 109.5085,9.911 h -28.944 v 1.124 h 28.944 z"
     fill="#131c50"
     id="path20" />
  <path
     d="m 90.2415,13.807 v 1 c -0.323,0 -0.545,0.045 -0.661,0.131 -0.117,0.086 -0.177,0.27 -0.177,0.551 v 1.659 c 0.008,0.308 -0.018,0.562 -0.082,0.765 -0.064,0.202 -0.177,0.359 -0.342,0.479 -0.165,0.116 -0.402,0.202 -0.71,0.255 0.308,0.086 0.548,0.195 0.717,0.326 0.169,0.127 0.29,0.285 0.357,0.468 0.072,0.184 0.105,0.405 0.105,0.659 v 2.312 c 0,0.27 0.06,0.449 0.177,0.532 0.116,0.082 0.338,0.127 0.661,0.127 v 1 c -0.567,0.075 -1.025,0.053 -1.379,-0.06 -0.353,-0.112 -0.612,-0.299 -0.777,-0.554 -0.165,-0.255 -0.248,-0.566 -0.248,-0.925 v -2.619 c 0,-0.176 -0.019,-0.307 -0.06,-0.389 -0.041,-0.083 -0.105,-0.15 -0.192,-0.192 -0.086,-0.044 -0.206,-0.093 -0.353,-0.153 v -1.057 c 0.154,-0.052 0.271,-0.093 0.353,-0.131 0.079,-0.037 0.136,-0.101 0.166,-0.191 0.03,-0.09 0.045,-0.243 0.045,-0.457 v -1.989 c 0,-0.367 0.082,-0.678 0.248,-0.929 0.165,-0.251 0.424,-0.435 0.777,-0.551 0.353,-0.112 0.812,-0.135 1.379,-0.06 z"
     fill="#131c50"
     id="path21" />
  <path
     d="m 100.5605,13.807 c 0.575,-0.075 1.037,-0.053 1.39,0.06 0.353,0.112 0.608,0.296 0.77,0.55 0.161,0.251 0.244,0.562 0.244,0.93 v 1.989 c 0,0.213 0.015,0.363 0.045,0.457 0.03,0.093 0.086,0.157 0.173,0.191 0.082,0.037 0.203,0.082 0.357,0.131 v 1.056 c -0.147,0.06 -0.267,0.109 -0.357,0.154 -0.09,0.045 -0.158,0.109 -0.199,0.191 -0.042,0.086 -0.06,0.214 -0.06,0.39 v 2.618 c 0,0.36 -0.083,0.667 -0.245,0.926 -0.161,0.258 -0.42,0.442 -0.77,0.554 -0.353,0.112 -0.815,0.135 -1.39,0.06 v -1 c 0.331,0 0.556,-0.042 0.673,-0.128 0.116,-0.086 0.176,-0.262 0.176,-0.532 v -2.311 c 0.008,-0.255 0.046,-0.476 0.109,-0.659 0.064,-0.184 0.184,-0.341 0.353,-0.469 0.17,-0.127 0.406,-0.236 0.707,-0.326 -0.301,-0.052 -0.534,-0.134 -0.699,-0.254 -0.165,-0.116 -0.278,-0.278 -0.342,-0.48 -0.064,-0.202 -0.09,-0.457 -0.082,-0.764 v -1.66 c 0,-0.277 -0.061,-0.46 -0.177,-0.55 -0.116,-0.09 -0.342,-0.131 -0.672,-0.131 v -1.001 z"
     fill="#131c50"
     id="path22" />
  <path
     d="m 185.7035,24 c -3.216,0 -6.095,-1.655 -7.716,-4.51 -0.03,-0.057 -0.049,-0.08 -0.06,-0.091 -0.004,0 -0.016,0 -0.034,0 h -0.008 c -1.893,0.011 -3.813,0.011 -5.706,0 -0.018,0 -0.03,0 -0.037,0 0,0.004 -0.019,0.026 -0.042,0.069 -2.059,3.389 -5.044,4.887 -8.876,4.448 -2.357,-0.268 -4.534,-1.575 -5.977,-3.577 -1.459,-2.029 -2.022,-4.559 -1.546,-6.948 0.835,-4.192 4.901,-7.368 9.462,-7.391 h 19.807 c 0.094,0.015 0.192,0.027 0.287,0.038 0.2,0.027 0.389,0.054 0.567,0.054 2.686,0.046 5.18,1.311 6.839,3.474 1.655,2.151 2.252,4.895 1.636,7.521 -0.839,3.588 -3.756,6.328 -7.259,6.817 -0.449,0.065 -0.899,0.096 -1.341,0.096 z m -7.807,-5.614 c 0.552,0 0.801,0.321 0.96,0.604 1.636,2.881 4.719,4.379 8.048,3.913 3.05,-0.428 5.691,-2.916 6.424,-6.049 0.544,-2.328 0.015,-4.758 -1.455,-6.669 -1.474,-1.919 -3.684,-3.042 -6.064,-3.081 -0.239,0 -0.465,-0.034 -0.688,-0.065 -0.08,-0.011 -0.159,-0.022 -0.238,-0.03 h -19.72 c -4.092,0.019 -7.739,2.847 -8.483,6.577 -0.423,2.113 0.079,4.353 1.375,6.153 1.278,1.777 3.205,2.931 5.283,3.168 3.412,0.394 6.072,-0.944 7.908,-3.975 0.159,-0.256 0.408,-0.55 0.937,-0.55 1.893,0.012 3.805,0.012 5.694,0 h 0.016 z"
     fill="#131c50"
     id="path23" />
  <path
     d="m 168.6655,13.46 v 2.289 h -3.404 V 19.2 h -2.248 v -3.428 h -3.412 v -2.289 h 3.389 v -3.451 h 2.263 v 3.428 z"
     fill="#131c50"
     id="path24" />
  <path
     d="m 189.9545,15.734 c -0.016,0.504 -0.307,0.783 -0.813,0.798 -0.408,0.016 -0.816,0.012 -1.228,0 -0.117,0 -0.257,-0.042 -0.34,-0.114 -0.472,-0.44 -0.933,-0.894 -1.462,-1.403 0.529,-0.519 0.963,-0.955 1.417,-1.376 0.094,-0.087 0.242,-0.156 0.366,-0.16 0.423,-0.015 0.85,-0.015 1.274,0 0.476,0.019 0.767,0.302 0.782,0.783 0.015,0.493 0.015,0.99 0,1.483 z"
     fill="#131c50"
     id="path25" />
  <path
     d="m 186.9165,18.791 c -0.015,0.508 -0.299,0.799 -0.798,0.818 -0.472,0.015 -0.948,0.015 -1.42,0 -0.507,-0.015 -0.79,-0.302 -0.809,-0.806 -0.015,-0.417 -0.019,-0.83 0,-1.242 0.008,-0.146 0.072,-0.314 0.166,-0.417 0.412,-0.459 0.847,-0.898 1.353,-1.426 0.499,0.528 0.941,0.983 1.364,1.453 0.083,0.095 0.132,0.248 0.14,0.378 0.015,0.417 0.015,0.829 0,1.246 z"
     fill="#131c50"
     id="path26" />
  <path
     d="m 185.3555,14.213 c -0.446,-0.467 -0.884,-0.906 -1.296,-1.365 -0.098,-0.103 -0.159,-0.275 -0.162,-0.416 -0.023,-0.398 -0.016,-0.795 -0.008,-1.196 0.015,-0.543 0.295,-0.83 0.82,-0.845 0.457,-0.015 0.914,-0.011 1.372,0 0.555,0.015 0.823,0.302 0.838,0.871 0,0.016 0,0.031 0,0.046 0.314,1.391 -0.638,2.098 -1.568,2.901 z"
     fill="#131c50"
     id="path27" />
  <path
     d="m 184.6645,14.977 c -0.518,0.52 -0.979,0.994 -1.451,1.456 -0.072,0.069 -0.201,0.096 -0.299,0.099 -0.427,0.012 -0.854,0.016 -1.277,0 -0.48,-0.019 -0.767,-0.301 -0.782,-0.783 -0.015,-0.497 -0.015,-0.994 0,-1.483 0.015,-0.485 0.295,-0.776 0.767,-0.791 0.427,-0.019 0.854,-0.015 1.281,0 0.113,0 0.253,0.042 0.336,0.119 0.469,0.443 0.93,0.902 1.428,1.387 z"
     fill="#131c50"
     id="path28" />
  <path
     d="m 263.9025,17.164 v 0.593 h -1.941 l -2.086,-2.925 h -0.194 l -2.068,2.925 h -1.895 v -0.593 l 2.765,-3.689 -2.536,-3.379 V 9.507 h 1.955 l 1.839,2.593 h 0.198 l 1.849,-2.593 h 1.882 v 0.589 l -2.534,3.379 z"
     fill="#131c50"
     id="path29" />
  <path
     d="m 254.4715,9.507 v 6.457 l -1.766,1.793 h -4.094 l -1.768,-1.793 V 9.507 h 1.98 v 5.764 l 0.733,0.739 h 2.205 l 0.737,-0.739 V 9.507 Z"
     fill="#131c50"
     id="path30" />
  <path
     d="m 243.6795,0.211 h -3.643 v 3.693 h 3.643 z"
     fill="#131c50"
     id="path31" />
  <path
     d="m 243.6795,23.05 h -3.643 v 3.692 h 3.643 z"
     fill="#131c50"
     id="path32" />
  <path
     d="m 270.0365,23.05 h -3.643 v 3.692 h 3.643 z"
     fill="#131c50"
     id="path33" />
  <path
     d="m 270.0365,0 h -3.643 v 3.693 h 3.643 z"
     fill="#131c50"
     id="path34" />
  <path
     d="m 258.0505,29.753 -1.504,-5.825 c -0.074,-0.289 0.232,-0.521 0.486,-0.368 l 5.256,3.225 c 0.258,0.157 0.187,0.554 -0.109,0.607 l -2.399,0.458 c -0.099,0.017 -0.187,0.085 -0.233,0.178 l -0.884,1.789 c -0.134,0.272 -0.532,0.233 -0.609,-0.064 z"
     fill="#131c50"
     id="path35" />
  <path
     d="m 267.1865,25.953 h -23.623 c -1.262,0 -2.29,-1.043 -2.29,-2.321 v -20 c 0,-1.278 1.028,-2.321 2.29,-2.321 h 23.623 c 1.261,0 2.29,1.043 2.29,2.321 v 20 c 0,1.278 -1.029,2.321 -2.29,2.321 z M 243.5635,2.382 c -0.68,0 -1.233,0.561 -1.233,1.25 v 20 c 0,0.689 0.553,1.25 1.233,1.25 h 23.623 c 0.68,0 1.233,-0.561 1.233,-1.25 v -20 c 0,-0.689 -0.553,-1.25 -1.233,-1.25 z"
     fill="#131c50"
     id="path36" />
  <path
     d="m 327.4725,25 h -9.988 c -0.249,0 -0.448,-0.2 -0.448,-0.449 v -9.757 c 0,-0.25 0.199,-0.45 0.448,-0.45 h 9.984 c 0.248,0 0.447,0.2 0.447,0.45 v 9.757 c 0,0.249 -0.199,0.449 -0.447,0.449 z m -8.873,-1.316 h 7.753 c 0.249,0 0.448,-0.2 0.448,-0.449 v -7.122 c 0,-0.249 -0.199,-0.449 -0.448,-0.449 h -7.753 c -0.248,0 -0.448,0.2 -0.448,0.449 v 7.122 c 0,0.249 0.2,0.449 0.448,0.449 z"
     fill="#131c50"
     id="path37" />
  <path
     d="m 340.0285,25 h -9.984 c -0.248,0 -0.448,-0.2 -0.448,-0.449 V 5.449 c 0,-0.249 0.2,-0.449 0.448,-0.449 h 9.984 c 0.248,0 0.448,0.2 0.448,0.449 v 19.097 c 0,0.25 -0.2,0.45 -0.448,0.45 z m -8.869,-1.316 h 7.754 c 0.248,0 0.447,-0.2 0.447,-0.449 V 6.769 c 0,-0.249 -0.199,-0.449 -0.447,-0.449 h -7.754 c -0.248,0 -0.447,0.2 -0.447,0.449 v 16.462 c 0,0.249 0.199,0.449 0.447,0.449 z"
     fill="#131c50"
     id="path38" />
  <path
     d="m 352.5885,25 h -9.984 c -0.248,0 -0.447,-0.2 -0.447,-0.449 V 10.442 c 0,-0.249 0.199,-0.449 0.447,-0.449 h 9.984 c 0.249,0 0.448,0.2 0.448,0.449 v 14.109 c 0,0.249 -0.199,0.449 -0.448,0.449 z m -8.868,-1.316 h 7.753 c 0.248,0 0.448,-0.2 0.448,-0.449 V 11.762 c 0,-0.249 -0.2,-0.449 -0.448,-0.449 h -7.753 c -0.249,0 -0.448,0.2 -0.448,0.449 v 11.473 c 0,0.249 0.199,0.449 0.448,0.449 z"
     fill="#131c50"
     id="path39" />
</svg>
