<?xml version="1.0" encoding="UTF-8" standalone="no"?>
<svg
   width="488.7442"
   height="61"
   viewBox="0 0 488.7442 61"
   fill="none"
   version="1.1"
   id="svg62"
   sodipodi:docname="logos.svg"
   inkscape:version="1.3.2 (091e20e, 2023-11-25, custom)"
   xmlns:inkscape="http://www.inkscape.org/namespaces/inkscape"
   xmlns:sodipodi="http://sodipodi.sourceforge.net/DTD/sodipodi-0.dtd"
   xmlns="http://www.w3.org/2000/svg"
   xmlns:svg="http://www.w3.org/2000/svg">
  <defs
     id="defs62" />
  <sodipodi:namedview
     id="namedview62"
     pagecolor="#ffffff"
     bordercolor="#666666"
     borderopacity="1.0"
     inkscape:showpageshadow="2"
     inkscape:pageopacity="0.0"
     inkscape:pagecheckerboard="0"
     inkscape:deskcolor="#d1d1d1"
     inkscape:zoom="0.66307449"
     inkscape:cx="512.7629"
     inkscape:cy="-18.851577"
     inkscape:window-width="1920"
     inkscape:window-height="1009"
     inkscape:window-x="-8"
     inkscape:window-y="-8"
     inkscape:window-maximized="1"
     inkscape:current-layer="svg62" />
  <mask
     id="path-3-inside-1_22_1760"
     fill="#ffffff">
    <path
       d="m 565.519,222.51 c -0.601,0 -1.207,-0.062 -1.795,0.014 -1.063,0.134 -1.597,-0.318 -1.963,-1.291 -1.818,-4.859 -3.694,-9.696 -5.544,-14.542 -0.832,-2.178 -1.637,-4.366 -2.492,-6.536 -1.126,-2.846 -3.708,-4.2 -6.385,-3.348 -1.682,0.533 -2.695,1.78 -3.36,3.331 -2.225,5.204 -4.431,10.422 -6.656,15.626 -1.389,3.25 -3.595,5.666 -7.195,6.424 -5.11,1.076 -10.13,-0.484 -12.359,-5.989 -3.27,-8.069 -6.431,-16.178 -9.646,-24.269 -0.307,-0.771 -0.122,-1.09 0.746,-1.067 1.479,0.036 2.962,0.045 4.446,0 0.841,-0.023 1.23,0.376 1.505,1.103 1.552,4.097 3.13,8.18 4.699,12.273 1.135,2.963 2.288,5.917 3.392,8.889 0.854,2.304 2.46,3.663 4.929,3.833 1.284,0.09 2.609,-0.278 3.292,-1.439 1.311,-2.223 2.573,-4.487 3.631,-6.832 1.601,-3.541 3.016,-7.167 4.509,-10.758 1.569,-3.788 4.291,-6.285 8.411,-6.953 3.997,-0.645 8.149,0.767 10.292,4.671 1.52,2.766 2.618,5.765 3.803,8.701 2.266,5.621 4.464,11.274 6.679,16.918 0.48,1.215 0.457,1.237 -0.859,1.241 -0.095,0 -0.19,0 -0.285,0 -0.601,0 -1.198,0 -1.799,0 z"
       id="path2" />
    <path
       d="m 470.844,204.315 c 0,3.976 0.013,7.948 0,11.924 -0.014,2.77 -1.859,5.451 -4.455,6.083 -3.581,0.87 -7.05,0.673 -9.785,-2.21 -0.76,-0.802 -1.362,-1.797 -1.85,-2.797 -3.098,-6.294 -6.141,-12.61 -9.203,-18.921 -0.108,-0.224 -0.235,-0.444 -0.352,-0.659 -0.371,-0.664 -0.977,-0.915 -1.678,-0.731 -0.71,0.188 -1.18,0.69 -1.266,1.457 -0.023,0.215 0,0.439 0,0.659 0,7.383 0,14.77 0,22.153 0,1.273 -0.14,1.417 -1.397,1.421 -1.072,0 -2.149,-0.013 -3.22,0.005 -0.665,0.009 -0.995,-0.301 -1.031,-0.937 -0.014,-0.22 -0.018,-0.439 -0.018,-0.655 0,-7.602 0,-15.205 0,-22.812 0,-2.241 0.61,-4.263 2.342,-5.809 1.872,-1.672 4.174,-1.758 6.48,-1.507 3.08,0.341 5.115,2.166 6.453,4.851 3.161,6.325 6.318,12.654 9.51,18.966 0.267,0.529 0.688,1.089 1.185,1.376 1.28,0.726 2.564,-0.018 2.727,-1.479 0.032,-0.278 0.009,-0.565 0.009,-0.843 0,-7.199 0,-14.394 0,-21.593 0,-1.188 0.158,-1.345 1.361,-1.349 1.009,-0.005 2.022,-0.005 3.03,0 0.796,0.004 1.18,0.345 1.171,1.206 -0.031,4.065 -0.013,8.136 -0.013,12.201 z"
       id="path3" />
    <path
       d="m 474.394,206.463 c -0.294,-4.125 1.157,-7.715 3.821,-10.862 2.057,-2.434 4.771,-3.819 7.859,-4.456 3.858,-0.793 7.738,-0.892 11.532,0.328 5.598,1.797 9.03,5.661 10.134,11.336 0.719,3.698 0.696,7.446 -0.941,11.01 -2.143,4.671 -5.693,7.723 -10.808,8.517 -4.581,0.712 -9.252,0.856 -13.571,-1.327 -4.544,-2.291 -7.113,-6.052 -7.864,-11.041 -0.049,-0.341 -0.149,-0.677 -0.158,-1.018 -0.022,-0.811 -0.009,-1.627 -0.009,-2.487 z m 16.777,11.296 c 6.276,0.69 11.481,-4.725 11.255,-11.395 -0.172,-5.11 -4.033,-10.7 -11.423,-10.606 -6.177,0.081 -10.853,4.613 -11.079,10.592 -0.235,6.142 4.396,12.032 11.247,11.413 z"
       id="path4" />
    <path
       d="m 426.26,206.709 c 0,-4.877 0.018,-9.754 -0.018,-14.631 -0.005,-0.87 0.226,-1.264 1.153,-1.22 1.162,0.059 2.329,0.036 3.496,0.023 0.696,-0.009 0.945,0.341 0.936,0.99 -0.018,1.031 0,2.063 0,3.094 0,8.723 0,17.446 0,26.169 0,1.35 -0.027,1.376 -1.379,1.376 -1.041,0 -2.085,-0.044 -3.121,0.014 -0.841,0.045 -1.085,-0.283 -1.08,-1.089 0.027,-4.909 0.013,-9.817 0.013,-14.726 z"
       id="path5" />
    <path
       d="m 445.253,230.023 v 8.208 h -3.392 v -13.336 c 1.149,0 2.307,-0.031 3.455,0.027 0.24,0.014 0.538,0.305 0.674,0.547 1.551,2.672 3.111,5.334 4.581,8.051 0.43,0.793 0.574,1.735 0.886,2.721 1.05,-4.021 3.632,-7.132 5.45,-10.638 0.289,-0.555 0.664,-0.748 1.275,-0.721 0.968,0.04 1.94,0.009 2.962,0.009 v 13.331 h -3.338 v -8.069 c -0.194,0.054 -0.298,0.068 -0.303,0.09 -0.153,2.255 -1.551,3.954 -2.654,5.778 -1.479,2.439 -1.479,2.425 -4.35,2.309 -0.624,-0.027 -1.054,-0.211 -1.384,-0.776 -0.629,-1.076 -1.416,-2.066 -1.981,-3.173 -0.692,-1.359 -1.221,-2.802 -1.886,-4.358 z"
       id="path6" />
    <path
       d="m 544.039,238.28 c -1.325,0 -2.65,0.054 -3.97,-0.013 -1.411,-0.072 -2.537,-0.789 -3.288,-1.937 -1.89,-2.904 -1.917,-6.809 0.167,-9.655 0.878,-1.197 2.157,-1.78 3.668,-1.784 2.084,-0.009 4.165,0 6.249,0 2.944,0 4.599,1.237 5.422,4.057 0.746,2.546 0.525,4.989 -0.881,7.266 -0.851,1.381 -2.144,2.057 -3.776,2.071 -1.199,0.009 -2.397,0 -3.596,0 z m 0.063,-10.328 c -0.787,0 -1.578,-0.009 -2.365,0 -1.234,0.009 -2.211,0.606 -2.46,1.758 -0.212,0.986 -0.353,2.062 -0.185,3.043 0.294,1.726 0.999,2.56 2.998,2.515 1.515,-0.036 3.025,-0.009 4.54,-0.031 0.968,-0.018 1.7,-0.462 2.076,-1.359 0.619,-1.47 0.628,-2.967 0.045,-4.451 -0.384,-0.977 -1.144,-1.448 -2.189,-1.466 -0.818,-0.013 -1.641,0 -2.46,0 z"
       id="path7" />
    <path
       d="m 475.384,238.245 v -9.535 h 2.596 c 0.04,0.399 0.081,0.816 0.149,1.524 0.868,-1.703 2.261,-1.6 3.645,-1.596 3.278,0.018 6.561,0.005 9.84,0.005 2.578,0 3.943,1.116 4.147,3.68 0.153,1.923 0.031,3.864 0.031,5.877 h -2.609 c -0.027,-0.35 -0.059,-0.709 -0.099,-1.197 -1.845,2.152 -4.26,1.183 -6.449,1.237 -1.126,0.027 -1.673,-0.892 -1.922,-1.968 -0.38,-1.654 0.516,-3.68 2.695,-3.523 1.692,0.121 3.396,0.022 5.083,0.022 0.199,-0.928 -0.212,-1.25 -0.995,-1.25 -3.816,0 -7.633,0 -11.45,0 -0.737,0 -1.243,0.336 -1.288,1.075 -0.086,1.462 -0.105,2.928 -0.145,4.393 -0.014,0.422 0,0.843 0,1.256 z m 17.134,-3.905 c -1.32,0 -2.577,-0.031 -3.834,0.027 -0.272,0.014 -0.525,0.354 -0.783,0.542 0.24,0.193 0.471,0.538 0.719,0.552 1.004,0.058 2.013,0.031 3.017,0 0.637,-0.018 0.981,-0.35 0.881,-1.121 z"
       id="path8" />
    <path
       d="m 510.43,224.523 h 3.193 v 5.487 c 1.578,-1.807 3.446,-1.556 5.25,-1.143 1.479,0.336 2.383,1.443 2.515,2.936 0.162,1.896 0.144,3.806 0.212,5.711 0.018,0.547 -0.212,0.811 -0.778,0.802 -0.787,-0.013 -1.569,0 -2.5,0 0,-1.542 0.013,-3.03 -0.009,-4.523 -0.009,-0.457 -0.055,-0.937 -0.204,-1.371 -0.38,-1.126 -1.085,-0.928 -3.161,-0.866 -0.882,0.027 -1.298,0.668 -1.298,1.538 0,1.345 0,2.69 0,4.034 0,0.341 0,0.677 0,1.157 h -3.21 v -13.762 z"
       id="path9" />
    <path
       d="m 470.355,232.776 c 0.109,-0.924 -0.298,-1.264 -1.13,-1.255 -1.954,0.013 -3.912,0 -5.947,0 v -2.86 c 2.383,0 4.748,-0.126 7.095,0.04 1.859,0.13 3.053,1.511 3.238,3.68 0.163,1.919 0.036,3.86 0.036,5.85 h -2.649 c -0.032,-0.403 -0.059,-0.798 -0.095,-1.259 -1.886,2.205 -4.373,1.308 -6.648,1.255 -1.189,-0.027 -1.935,-1.515 -1.804,-3.08 0.113,-1.372 1.049,-2.353 2.315,-2.367 1.859,-0.018 3.717,-0.004 5.585,-0.004 z m 0.014,1.564 c -1.316,0 -2.573,-0.031 -3.83,0.023 -0.276,0.013 -0.534,0.331 -0.801,0.506 0.258,0.206 0.502,0.569 0.774,0.587 0.936,0.072 1.885,0.027 2.826,0.018 0.678,-0.004 1.045,-0.331 1.031,-1.143 z"
       id="path10" />
    <path
       d="m 505.438,238.258 c 0,-0.645 0.018,-1.286 0,-1.928 -0.045,-1.273 0.054,-2.582 -0.217,-3.805 -0.371,-1.699 -1.895,-0.821 -2.93,-0.982 -0.756,-0.117 -1.285,0.278 -1.339,1.089 -0.081,1.242 -0.136,2.484 -0.185,3.725 -0.023,0.592 0,1.184 0,1.852 h -3.225 v -9.495 h 2.592 c 0.067,0.323 0.131,0.624 0.199,0.942 2.111,-1.291 4.278,-1.435 6.489,-0.444 1.135,0.507 1.659,1.475 1.714,2.694 0.095,2.085 0.185,4.169 0.28,6.352 z"
       id="path11" />
    <path
       d="m 530.83,232.776 c -0.041,-0.444 -0.073,-0.798 -0.113,-1.206 0.958,-0.283 1.908,-0.565 2.903,-0.861 0.868,2.488 0.344,4.989 0.497,7.518 h -2.645 c -0.059,-0.372 -0.118,-0.753 -0.213,-1.372 -0.768,1.412 -1.931,1.511 -3.156,1.484 -1.04,-0.023 -2.08,0.004 -3.12,-0.045 -1.072,-0.049 -1.805,-0.753 -1.913,-1.811 -0.059,-0.551 -0.063,-1.116 -0.009,-1.668 0.135,-1.349 0.922,-2.026 2.311,-2.03 1.79,-0.009 3.586,0 5.462,0 z m -0.054,1.564 c -1.285,0 -2.569,-0.027 -3.853,0.023 -0.263,0.009 -0.511,0.291 -0.769,0.448 0.235,0.228 0.457,0.636 0.71,0.65 1.004,0.067 2.017,0.036 3.021,0 0.637,-0.023 0.981,-0.354 0.891,-1.121 z"
       id="path12" />
    <path
       d="m 531.16,228.732 c -0.172,0.816 -0.299,1.578 -0.516,2.318 -0.058,0.197 -0.379,0.448 -0.583,0.453 -2.103,0.031 -4.206,0.022 -6.372,0.022 v -2.788 h 7.471 z"
       id="path13" />
  </mask>
  <path
     d="m 485.519,38.51 c -0.601,0 -1.207,-0.062 -1.795,0.014 -1.063,0.134 -1.597,-0.318 -1.963,-1.291 -1.818,-4.859 -3.694,-9.696 -5.544,-14.542 -0.832,-2.178 -1.637,-4.366 -2.492,-6.536 -1.126,-2.846 -3.708,-4.2 -6.385,-3.348 -1.682,0.533 -2.695,1.78 -3.36,3.331 -2.225,5.204 -4.431,10.422 -6.656,15.626 -1.389,3.25 -3.595,5.666 -7.195,6.424 -5.11,1.076 -10.13,-0.484 -12.359,-5.989 -3.27,-8.069 -6.431,-16.178 -9.646,-24.269 -0.307,-0.771 -0.122,-1.09 0.746,-1.067 1.479,0.036 2.962,0.045 4.446,0 0.841,-0.023 1.23,0.376 1.505,1.103 1.552,4.097 3.13,8.18 4.699,12.273 1.135,2.963 2.288,5.917 3.392,8.889 0.854,2.304 2.46,3.663 4.929,3.833 1.284,0.09 2.609,-0.278 3.292,-1.439 1.311,-2.223 2.573,-4.487 3.631,-6.832 1.601,-3.541 3.016,-7.167 4.509,-10.758 1.569,-3.788 4.291,-6.285 8.411,-6.953 3.997,-0.645 8.149,0.767 10.292,4.671 1.52,2.766 2.618,5.765 3.803,8.701 2.266,5.621 4.464,11.274 6.679,16.918 0.48,1.215 0.457,1.237 -0.859,1.241 -0.095,0 -0.19,0 -0.285,0 -0.601,0 -1.198,0 -1.799,0 z"
     fill="#ffffff"
     id="path14" />
  <path
     d="m 390.844,20.315 c 0,3.976 0.013,7.948 0,11.924 -0.014,2.77 -1.859,5.451 -4.455,6.083 -3.581,0.87 -7.05,0.673 -9.785,-2.21 -0.76,-0.802 -1.362,-1.797 -1.85,-2.797 -3.098,-6.294 -6.141,-12.61 -9.203,-18.921 -0.108,-0.224 -0.235,-0.444 -0.352,-0.659 -0.371,-0.664 -0.977,-0.915 -1.678,-0.731 -0.71,0.188 -1.18,0.69 -1.266,1.457 -0.023,0.215 0,0.439 0,0.659 0,7.383 0,14.77 0,22.153 0,1.273 -0.14,1.417 -1.397,1.421 -1.072,0 -2.149,-0.013 -3.22,0.005 -0.665,0.009 -0.995,-0.301 -1.031,-0.937 -0.014,-0.22 -0.018,-0.439 -0.018,-0.655 0,-7.602 0,-15.205 0,-22.812 0,-2.241 0.61,-4.263 2.342,-5.809 1.872,-1.672 4.174,-1.758 6.48,-1.507 3.08,0.341 5.115,2.166 6.453,4.851 3.161,6.325 6.318,12.654 9.51,18.966 0.267,0.529 0.688,1.089 1.185,1.376 1.28,0.726 2.564,-0.018 2.727,-1.479 0.032,-0.278 0.009,-0.565 0.009,-0.843 0,-7.199 0,-14.394 0,-21.593 0,-1.188 0.158,-1.345 1.361,-1.349 1.009,-0.005 2.022,-0.005 3.03,0 0.796,0.004 1.18,0.345 1.171,1.206 -0.031,4.065 -0.013,8.136 -0.013,12.201 z"
     fill="#ffffff"
     id="path15" />
  <path
     d="m 394.394,22.463 c -0.294,-4.125 1.157,-7.715 3.821,-10.862 2.057,-2.434 4.771,-3.819 7.859,-4.456 3.858,-0.793 7.738,-0.892 11.532,0.328 5.598,1.797 9.03,5.661 10.134,11.336 0.719,3.698 0.696,7.446 -0.941,11.01 -2.143,4.671 -5.693,7.723 -10.808,8.517 -4.581,0.712 -9.252,0.856 -13.571,-1.327 -4.544,-2.291 -7.113,-6.052 -7.864,-11.041 -0.049,-0.341 -0.149,-0.677 -0.158,-1.018 -0.022,-0.811 -0.009,-1.627 -0.009,-2.487 z m 16.777,11.296 c 6.276,0.69 11.481,-4.725 11.255,-11.395 -0.172,-5.11 -4.033,-10.7 -11.423,-10.606 -6.177,0.081 -10.853,4.613 -11.079,10.592 -0.235,6.142 4.396,12.032 11.247,11.413 z"
     fill="#ffffff"
     id="path16" />
  <path
     d="m 346.26,22.709 c 0,-4.877 0.018,-9.754 -0.018,-14.631 -0.005,-0.87 0.226,-1.264 1.153,-1.22 1.162,0.059 2.329,0.036 3.496,0.023 0.696,-0.009 0.945,0.341 0.936,0.99 -0.018,1.031 0,2.063 0,3.094 0,8.723 0,17.446 0,26.169 0,1.35 -0.027,1.376 -1.379,1.376 -1.041,0 -2.085,-0.044 -3.121,0.014 -0.841,0.045 -1.085,-0.283 -1.08,-1.089 0.027,-4.909 0.013,-9.817 0.013,-14.726 z"
     fill="#ffffff"
     id="path17" />
  <path
     d="m 365.253,46.023 v 8.208 h -3.392 V 40.895 c 1.149,0 2.307,-0.031 3.455,0.027 0.24,0.014 0.538,0.305 0.674,0.547 1.551,2.672 3.111,5.334 4.581,8.051 0.43,0.793 0.574,1.735 0.886,2.721 1.05,-4.021 3.632,-7.132 5.45,-10.638 0.289,-0.555 0.664,-0.748 1.275,-0.721 0.968,0.04 1.94,0.009 2.962,0.009 v 13.331 h -3.338 v -8.069 c -0.194,0.054 -0.298,0.068 -0.303,0.09 -0.153,2.255 -1.551,3.954 -2.654,5.778 -1.479,2.439 -1.479,2.425 -4.35,2.309 -0.624,-0.027 -1.054,-0.211 -1.384,-0.776 -0.629,-1.076 -1.416,-2.066 -1.981,-3.173 -0.692,-1.359 -1.221,-2.802 -1.886,-4.358 z"
     fill="#ffffff"
     id="path18" />
  <path
     d="m 464.039,54.28 c -1.325,0 -2.65,0.054 -3.97,-0.013 -1.411,-0.072 -2.537,-0.789 -3.288,-1.937 -1.89,-2.904 -1.917,-6.809 0.167,-9.655 0.878,-1.197 2.157,-1.78 3.668,-1.784 2.084,-0.009 4.165,0 6.249,0 2.944,0 4.599,1.237 5.422,4.057 0.746,2.546 0.525,4.989 -0.881,7.266 -0.851,1.381 -2.144,2.057 -3.776,2.071 -1.199,0.009 -2.397,0 -3.596,0 z m 0.063,-10.328 c -0.787,0 -1.578,-0.009 -2.365,0 -1.234,0.009 -2.211,0.606 -2.46,1.758 -0.212,0.986 -0.353,2.062 -0.185,3.043 0.294,1.726 0.999,2.56 2.998,2.515 1.515,-0.036 3.025,-0.009 4.54,-0.031 0.968,-0.018 1.7,-0.462 2.076,-1.359 0.619,-1.47 0.628,-2.967 0.045,-4.451 -0.384,-0.977 -1.144,-1.448 -2.189,-1.466 -0.818,-0.013 -1.641,0 -2.46,0 z"
     fill="#ffffff"
     id="path19" />
  <path
     d="M 395.384,54.245 V 44.71 h 2.596 c 0.04,0.399 0.081,0.816 0.149,1.524 0.868,-1.703 2.261,-1.6 3.645,-1.596 3.278,0.018 6.561,0.005 9.84,0.005 2.578,0 3.943,1.116 4.147,3.68 0.153,1.923 0.031,3.864 0.031,5.877 h -2.609 c -0.027,-0.35 -0.059,-0.709 -0.099,-1.197 -1.845,2.152 -4.26,1.183 -6.449,1.237 -1.126,0.027 -1.673,-0.892 -1.922,-1.968 -0.38,-1.654 0.516,-3.68 2.695,-3.523 1.692,0.121 3.396,0.022 5.083,0.022 0.199,-0.928 -0.212,-1.25 -0.995,-1.25 -3.816,0 -7.633,0 -11.45,0 -0.737,0 -1.243,0.336 -1.288,1.075 -0.086,1.462 -0.105,2.928 -0.145,4.393 -0.014,0.422 0,0.843 0,1.256 z m 17.134,-3.905 c -1.32,0 -2.577,-0.031 -3.834,0.027 -0.272,0.014 -0.525,0.354 -0.783,0.542 0.24,0.193 0.471,0.538 0.719,0.552 1.004,0.058 2.013,0.031 3.017,0 0.637,-0.018 0.981,-0.35 0.881,-1.121 z"
     fill="#ffffff"
     id="path20" />
  <path
     d="m 430.43,40.523 h 3.193 v 5.487 c 1.578,-1.807 3.446,-1.556 5.25,-1.143 1.479,0.336 2.383,1.443 2.515,2.936 0.162,1.896 0.144,3.806 0.212,5.711 0.018,0.547 -0.212,0.811 -0.778,0.802 -0.787,-0.013 -1.569,0 -2.5,0 0,-1.542 0.013,-3.03 -0.009,-4.523 -0.009,-0.457 -0.055,-0.937 -0.204,-1.371 -0.38,-1.126 -1.085,-0.928 -3.161,-0.866 -0.882,0.027 -1.298,0.668 -1.298,1.538 0,1.345 0,2.69 0,4.034 0,0.341 0,0.677 0,1.157 h -3.21 V 40.523 Z"
     fill="#ffffff"
     id="path21" />
  <path
     d="m 390.355,48.776 c 0.109,-0.924 -0.298,-1.264 -1.13,-1.255 -1.954,0.013 -3.912,0 -5.947,0 v -2.86 c 2.383,0 4.748,-0.126 7.095,0.04 1.859,0.13 3.053,1.511 3.238,3.68 0.163,1.919 0.036,3.86 0.036,5.85 h -2.649 c -0.032,-0.403 -0.059,-0.798 -0.095,-1.259 -1.886,2.205 -4.373,1.308 -6.648,1.255 -1.189,-0.027 -1.935,-1.515 -1.804,-3.08 0.113,-1.372 1.049,-2.353 2.315,-2.367 1.859,-0.018 3.717,-0.004 5.585,-0.004 z m 0.014,1.564 c -1.316,0 -2.573,-0.031 -3.83,0.023 -0.276,0.013 -0.534,0.331 -0.801,0.506 0.258,0.206 0.502,0.569 0.774,0.587 0.936,0.072 1.885,0.027 2.826,0.018 0.678,-0.004 1.045,-0.331 1.031,-1.143 z"
     fill="#ffffff"
     id="path22" />
  <path
     d="m 425.438,54.258 c 0,-0.645 0.018,-1.286 0,-1.928 -0.045,-1.273 0.054,-2.582 -0.217,-3.805 -0.371,-1.699 -1.895,-0.821 -2.93,-0.982 -0.756,-0.117 -1.285,0.278 -1.339,1.089 -0.081,1.242 -0.136,2.484 -0.185,3.725 -0.023,0.592 0,1.184 0,1.852 h -3.225 v -9.495 h 2.592 c 0.067,0.323 0.131,0.624 0.199,0.942 2.111,-1.291 4.278,-1.435 6.489,-0.444 1.135,0.507 1.659,1.475 1.714,2.694 0.095,2.085 0.185,4.169 0.28,6.352 z"
     fill="#ffffff"
     id="path23" />
  <path
     d="m 450.83,48.776 c -0.041,-0.444 -0.073,-0.798 -0.113,-1.206 0.958,-0.283 1.908,-0.565 2.903,-0.861 0.868,2.488 0.344,4.989 0.497,7.518 h -2.645 c -0.059,-0.372 -0.118,-0.753 -0.213,-1.372 -0.768,1.412 -1.931,1.511 -3.156,1.484 -1.04,-0.023 -2.08,0.004 -3.12,-0.045 -1.072,-0.049 -1.805,-0.753 -1.913,-1.811 -0.059,-0.551 -0.063,-1.116 -0.009,-1.668 0.135,-1.349 0.922,-2.026 2.311,-2.03 1.79,-0.009 3.586,0 5.462,0 z m -0.054,1.564 c -1.285,0 -2.569,-0.027 -3.853,0.023 -0.263,0.009 -0.511,0.291 -0.769,0.448 0.235,0.228 0.457,0.636 0.71,0.65 1.004,0.067 2.017,0.036 3.021,0 0.637,-0.023 0.981,-0.354 0.891,-1.121 z"
     fill="#ffffff"
     id="path24" />
  <path
     d="m 451.16,44.732 c -0.172,0.816 -0.299,1.578 -0.516,2.318 -0.058,0.197 -0.379,0.448 -0.583,0.453 -2.103,0.031 -4.206,0.022 -6.372,0.022 v -2.788 h 7.471 z"
     fill="#ffffff"
     id="path25" />
  <path
     d="m 565.519,222.51 c -0.601,0 -1.207,-0.062 -1.795,0.014 -1.063,0.134 -1.597,-0.318 -1.963,-1.291 -1.818,-4.859 -3.694,-9.696 -5.544,-14.542 -0.832,-2.178 -1.637,-4.366 -2.492,-6.536 -1.126,-2.846 -3.708,-4.2 -6.385,-3.348 -1.682,0.533 -2.695,1.78 -3.36,3.331 -2.225,5.204 -4.431,10.422 -6.656,15.626 -1.389,3.25 -3.595,5.666 -7.195,6.424 -5.11,1.076 -10.13,-0.484 -12.359,-5.989 -3.27,-8.069 -6.431,-16.178 -9.646,-24.269 -0.307,-0.771 -0.122,-1.09 0.746,-1.067 1.479,0.036 2.962,0.045 4.446,0 0.841,-0.023 1.23,0.376 1.505,1.103 1.552,4.097 3.13,8.18 4.699,12.273 1.135,2.963 2.288,5.917 3.392,8.889 0.854,2.304 2.46,3.663 4.929,3.833 1.284,0.09 2.609,-0.278 3.292,-1.439 1.311,-2.223 2.573,-4.487 3.631,-6.832 1.601,-3.541 3.016,-7.167 4.509,-10.758 1.569,-3.788 4.291,-6.285 8.411,-6.953 3.997,-0.645 8.149,0.767 10.292,4.671 1.52,2.766 2.618,5.765 3.803,8.701 2.266,5.621 4.464,11.274 6.679,16.918 0.48,1.215 0.457,1.237 -0.859,1.241 -0.095,0 -0.19,0 -0.285,0 -0.601,0 -1.198,0 -1.799,0 z"
     stroke="#ffffff"
     stroke-width="2"
     mask="url(#path-3-inside-1_22_1760)"
     id="path26"
     transform="translate(-80,-184)" />
  <path
     d="m 470.844,204.315 c 0,3.976 0.013,7.948 0,11.924 -0.014,2.77 -1.859,5.451 -4.455,6.083 -3.581,0.87 -7.05,0.673 -9.785,-2.21 -0.76,-0.802 -1.362,-1.797 -1.85,-2.797 -3.098,-6.294 -6.141,-12.61 -9.203,-18.921 -0.108,-0.224 -0.235,-0.444 -0.352,-0.659 -0.371,-0.664 -0.977,-0.915 -1.678,-0.731 -0.71,0.188 -1.18,0.69 -1.266,1.457 -0.023,0.215 0,0.439 0,0.659 0,7.383 0,14.77 0,22.153 0,1.273 -0.14,1.417 -1.397,1.421 -1.072,0 -2.149,-0.013 -3.22,0.005 -0.665,0.009 -0.995,-0.301 -1.031,-0.937 -0.014,-0.22 -0.018,-0.439 -0.018,-0.655 0,-7.602 0,-15.205 0,-22.812 0,-2.241 0.61,-4.263 2.342,-5.809 1.872,-1.672 4.174,-1.758 6.48,-1.507 3.08,0.341 5.115,2.166 6.453,4.851 3.161,6.325 6.318,12.654 9.51,18.966 0.267,0.529 0.688,1.089 1.185,1.376 1.28,0.726 2.564,-0.018 2.727,-1.479 0.032,-0.278 0.009,-0.565 0.009,-0.843 0,-7.199 0,-14.394 0,-21.593 0,-1.188 0.158,-1.345 1.361,-1.349 1.009,-0.005 2.022,-0.005 3.03,0 0.796,0.004 1.18,0.345 1.171,1.206 -0.031,4.065 -0.013,8.136 -0.013,12.201 z"
     stroke="#ffffff"
     stroke-width="2"
     mask="url(#path-3-inside-1_22_1760)"
     id="path27"
     transform="translate(-80,-184)" />
  <path
     d="m 474.394,206.463 c -0.294,-4.125 1.157,-7.715 3.821,-10.862 2.057,-2.434 4.771,-3.819 7.859,-4.456 3.858,-0.793 7.738,-0.892 11.532,0.328 5.598,1.797 9.03,5.661 10.134,11.336 0.719,3.698 0.696,7.446 -0.941,11.01 -2.143,4.671 -5.693,7.723 -10.808,8.517 -4.581,0.712 -9.252,0.856 -13.571,-1.327 -4.544,-2.291 -7.113,-6.052 -7.864,-11.041 -0.049,-0.341 -0.149,-0.677 -0.158,-1.018 -0.022,-0.811 -0.009,-1.627 -0.009,-2.487 z m 16.777,11.296 c 6.276,0.69 11.481,-4.725 11.255,-11.395 -0.172,-5.11 -4.033,-10.7 -11.423,-10.606 -6.177,0.081 -10.853,4.613 -11.079,10.592 -0.235,6.142 4.396,12.032 11.247,11.413 z"
     stroke="#ffffff"
     stroke-width="2"
     mask="url(#path-3-inside-1_22_1760)"
     id="path28"
     transform="translate(-80,-184)" />
  <path
     d="m 426.26,206.709 c 0,-4.877 0.018,-9.754 -0.018,-14.631 -0.005,-0.87 0.226,-1.264 1.153,-1.22 1.162,0.059 2.329,0.036 3.496,0.023 0.696,-0.009 0.945,0.341 0.936,0.99 -0.018,1.031 0,2.063 0,3.094 0,8.723 0,17.446 0,26.169 0,1.35 -0.027,1.376 -1.379,1.376 -1.041,0 -2.085,-0.044 -3.121,0.014 -0.841,0.045 -1.085,-0.283 -1.08,-1.089 0.027,-4.909 0.013,-9.817 0.013,-14.726 z"
     stroke="#ffffff"
     stroke-width="2"
     mask="url(#path-3-inside-1_22_1760)"
     id="path29"
     transform="translate(-80,-184)" />
  <path
     d="m 445.253,230.023 v 8.208 h -3.392 v -13.336 c 1.149,0 2.307,-0.031 3.455,0.027 0.24,0.014 0.538,0.305 0.674,0.547 1.551,2.672 3.111,5.334 4.581,8.051 0.43,0.793 0.574,1.735 0.886,2.721 1.05,-4.021 3.632,-7.132 5.45,-10.638 0.289,-0.555 0.664,-0.748 1.275,-0.721 0.968,0.04 1.94,0.009 2.962,0.009 v 13.331 h -3.338 v -8.069 c -0.194,0.054 -0.298,0.068 -0.303,0.09 -0.153,2.255 -1.551,3.954 -2.654,5.778 -1.479,2.439 -1.479,2.425 -4.35,2.309 -0.624,-0.027 -1.054,-0.211 -1.384,-0.776 -0.629,-1.076 -1.416,-2.066 -1.981,-3.173 -0.692,-1.359 -1.221,-2.802 -1.886,-4.358 z"
     stroke="#ffffff"
     stroke-width="2"
     mask="url(#path-3-inside-1_22_1760)"
     id="path30"
     transform="translate(-80,-184)" />
  <path
     d="m 544.039,238.28 c -1.325,0 -2.65,0.054 -3.97,-0.013 -1.411,-0.072 -2.537,-0.789 -3.288,-1.937 -1.89,-2.904 -1.917,-6.809 0.167,-9.655 0.878,-1.197 2.157,-1.78 3.668,-1.784 2.084,-0.009 4.165,0 6.249,0 2.944,0 4.599,1.237 5.422,4.057 0.746,2.546 0.525,4.989 -0.881,7.266 -0.851,1.381 -2.144,2.057 -3.776,2.071 -1.199,0.009 -2.397,0 -3.596,0 z m 0.063,-10.328 c -0.787,0 -1.578,-0.009 -2.365,0 -1.234,0.009 -2.211,0.606 -2.46,1.758 -0.212,0.986 -0.353,2.062 -0.185,3.043 0.294,1.726 0.999,2.56 2.998,2.515 1.515,-0.036 3.025,-0.009 4.54,-0.031 0.968,-0.018 1.7,-0.462 2.076,-1.359 0.619,-1.47 0.628,-2.967 0.045,-4.451 -0.384,-0.977 -1.144,-1.448 -2.189,-1.466 -0.818,-0.013 -1.641,0 -2.46,0 z"
     stroke="#ffffff"
     stroke-width="2"
     mask="url(#path-3-inside-1_22_1760)"
     id="path31"
     transform="translate(-80,-184)" />
  <path
     d="m 475.384,238.245 v -9.535 h 2.596 c 0.04,0.399 0.081,0.816 0.149,1.524 0.868,-1.703 2.261,-1.6 3.645,-1.596 3.278,0.018 6.561,0.005 9.84,0.005 2.578,0 3.943,1.116 4.147,3.68 0.153,1.923 0.031,3.864 0.031,5.877 h -2.609 c -0.027,-0.35 -0.059,-0.709 -0.099,-1.197 -1.845,2.152 -4.26,1.183 -6.449,1.237 -1.126,0.027 -1.673,-0.892 -1.922,-1.968 -0.38,-1.654 0.516,-3.68 2.695,-3.523 1.692,0.121 3.396,0.022 5.083,0.022 0.199,-0.928 -0.212,-1.25 -0.995,-1.25 -3.816,0 -7.633,0 -11.45,0 -0.737,0 -1.243,0.336 -1.288,1.075 -0.086,1.462 -0.105,2.928 -0.145,4.393 -0.014,0.422 0,0.843 0,1.256 z m 17.134,-3.905 c -1.32,0 -2.577,-0.031 -3.834,0.027 -0.272,0.014 -0.525,0.354 -0.783,0.542 0.24,0.193 0.471,0.538 0.719,0.552 1.004,0.058 2.013,0.031 3.017,0 0.637,-0.018 0.981,-0.35 0.881,-1.121 z"
     stroke="#ffffff"
     stroke-width="2"
     mask="url(#path-3-inside-1_22_1760)"
     id="path32"
     transform="translate(-80,-184)" />
  <path
     d="m 510.43,224.523 h 3.193 v 5.487 c 1.578,-1.807 3.446,-1.556 5.25,-1.143 1.479,0.336 2.383,1.443 2.515,2.936 0.162,1.896 0.144,3.806 0.212,5.711 0.018,0.547 -0.212,0.811 -0.778,0.802 -0.787,-0.013 -1.569,0 -2.5,0 0,-1.542 0.013,-3.03 -0.009,-4.523 -0.009,-0.457 -0.055,-0.937 -0.204,-1.371 -0.38,-1.126 -1.085,-0.928 -3.161,-0.866 -0.882,0.027 -1.298,0.668 -1.298,1.538 0,1.345 0,2.69 0,4.034 0,0.341 0,0.677 0,1.157 h -3.21 v -13.762 z"
     stroke="#ffffff"
     stroke-width="2"
     mask="url(#path-3-inside-1_22_1760)"
     id="path33"
     transform="translate(-80,-184)" />
  <path
     d="m 470.355,232.776 c 0.109,-0.924 -0.298,-1.264 -1.13,-1.255 -1.954,0.013 -3.912,0 -5.947,0 v -2.86 c 2.383,0 4.748,-0.126 7.095,0.04 1.859,0.13 3.053,1.511 3.238,3.68 0.163,1.919 0.036,3.86 0.036,5.85 h -2.649 c -0.032,-0.403 -0.059,-0.798 -0.095,-1.259 -1.886,2.205 -4.373,1.308 -6.648,1.255 -1.189,-0.027 -1.935,-1.515 -1.804,-3.08 0.113,-1.372 1.049,-2.353 2.315,-2.367 1.859,-0.018 3.717,-0.004 5.585,-0.004 z m 0.014,1.564 c -1.316,0 -2.573,-0.031 -3.83,0.023 -0.276,0.013 -0.534,0.331 -0.801,0.506 0.258,0.206 0.502,0.569 0.774,0.587 0.936,0.072 1.885,0.027 2.826,0.018 0.678,-0.004 1.045,-0.331 1.031,-1.143 z"
     stroke="#ffffff"
     stroke-width="2"
     mask="url(#path-3-inside-1_22_1760)"
     id="path34"
     transform="translate(-80,-184)" />
  <path
     d="m 505.438,238.258 c 0,-0.645 0.018,-1.286 0,-1.928 -0.045,-1.273 0.054,-2.582 -0.217,-3.805 -0.371,-1.699 -1.895,-0.821 -2.93,-0.982 -0.756,-0.117 -1.285,0.278 -1.339,1.089 -0.081,1.242 -0.136,2.484 -0.185,3.725 -0.023,0.592 0,1.184 0,1.852 h -3.225 v -9.495 h 2.592 c 0.067,0.323 0.131,0.624 0.199,0.942 2.111,-1.291 4.278,-1.435 6.489,-0.444 1.135,0.507 1.659,1.475 1.714,2.694 0.095,2.085 0.185,4.169 0.28,6.352 z"
     stroke="#ffffff"
     stroke-width="2"
     mask="url(#path-3-inside-1_22_1760)"
     id="path35"
     transform="translate(-80,-184)" />
  <path
     d="m 530.83,232.776 c -0.041,-0.444 -0.073,-0.798 -0.113,-1.206 0.958,-0.283 1.908,-0.565 2.903,-0.861 0.868,2.488 0.344,4.989 0.497,7.518 h -2.645 c -0.059,-0.372 -0.118,-0.753 -0.213,-1.372 -0.768,1.412 -1.931,1.511 -3.156,1.484 -1.04,-0.023 -2.08,0.004 -3.12,-0.045 -1.072,-0.049 -1.805,-0.753 -1.913,-1.811 -0.059,-0.551 -0.063,-1.116 -0.009,-1.668 0.135,-1.349 0.922,-2.026 2.311,-2.03 1.79,-0.009 3.586,0 5.462,0 z m -0.054,1.564 c -1.285,0 -2.569,-0.027 -3.853,0.023 -0.263,0.009 -0.511,0.291 -0.769,0.448 0.235,0.228 0.457,0.636 0.71,0.65 1.004,0.067 2.017,0.036 3.021,0 0.637,-0.023 0.981,-0.354 0.891,-1.121 z"
     stroke="#ffffff"
     stroke-width="2"
     mask="url(#path-3-inside-1_22_1760)"
     id="path36"
     transform="translate(-80,-184)" />
  <path
     d="m 531.16,228.732 c -0.172,0.816 -0.299,1.578 -0.516,2.318 -0.058,0.197 -0.379,0.448 -0.583,0.453 -2.103,0.031 -4.206,0.022 -6.372,0.022 v -2.788 h 7.471 z"
     stroke="#ffffff"
     stroke-width="2"
     mask="url(#path-3-inside-1_22_1760)"
     id="path37"
     transform="translate(-80,-184)" />
  <path
     d="M 310.865,0 V 61"
     stroke="#ffffff"
     stroke-width="3"
     stroke-miterlimit="10"
     id="path38" />
  <mask
     id="path-5-inside-2_22_1760"
     fill="#ffffff">
    <path
       d="m 155.488,234.883 -6.019,-6.081 v -19.038 h -6.544 v -8.133 h 6.544 v -8.859 h 10.405 v 8.859 h 11.188 v 8.133 h -11.188 v 15.666 l 0.851,0.859 h 10.862 v 8.594 z"
       id="path39" />
    <path
       d="m 177.538,234.883 v -33.252 h 8.312 v 2.646 h 1.243 l 3.075,-2.646 h 12.038 v 8.594 h -11.188 l -3.075,2.513 v 22.145 z"
       id="path40" />
    <path
       d="m 206.131,196.409 v -7.804 h 10.663 v 7.799 h -10.663 z m 0.131,38.474 v -33.252 h 10.406 v 33.252 z"
       id="path41" />
    <path
       d="m 226.806,234.883 v -38.209 h -6.543 v -8.069 h 16.949 v 46.274 h -10.406 z"
       id="path42" />
    <path
       d="m 246.5,234.883 v -46.278 h 10.406 v 15.005 h 0.655 l 2.42,-1.983 h 13.869 l 7.263,7.337 v 25.915 h -10.406 v -22.41 l -2.225,-2.248 h -8.243 l -3.338,2.709 v 21.949 h -10.405 z"
       id="path43" />
    <path
       d="m 293.806,234.883 -6.019,-6.081 v -8.461 l 6.218,-6.282 h 18.188 v -2.116 l -1.899,-1.983 h -18.057 v -8.329 h 23.619 l 6.738,6.808 v 26.444 h -8.311 v -2.709 h -1.05 l -3.206,2.709 h -16.225 z m 15.376,-7.931 3.011,-2.444 v -3.701 h -12.368 l -1.637,1.654 v 3.303 l 1.176,1.188 z"
       id="path44" />
    <path
       d="m 330.449,234.883 v -7.931 h 21.005 l 1.176,-1.188 v -2.312 l -1.176,-1.256 h -15.506 l -6.019,-6.018 v -8.53 l 6.019,-6.017 h 25.256 v 7.932 H 341.51 l -1.175,1.188 v 2.312 l 1.175,1.187 h 15.507 l 6.019,6.082 v 8.461 l -6.019,6.081 h -26.563 z"
       id="path45" />
    <path
       d="M 119.854,191.118 H 87.4615 L 80,199.246 l 0.3934,32.531 7.2626,6.944 h 31.216 l 8.249,-6.944 0.393,-32.928 -7.656,-7.735 z m 1.392,37.776 -1.564,1.315 h -4.672 l -1.411,-1.343 -0.009,-0.749 H 96.0717 l -4.0519,-4.094 v -6.698 l 4.0519,-4.093 h 12.5263 l 2.211,-2.235 v -3.536 l -2.211,-2.234 H 93.9191 l -0.009,0.873 -1.5647,1.32 h -4.6713 l -1.4109,-1.348 -0.0588,-4.898 1.4109,-1.539 h 4.8974 l 1.4516,1.471 -0.009,0.959 h 16.3027 l 4.051,4.094 v 6.141 l -4.051,4.093 H 97.7313 l -2.2113,2.234 v 4.094 l 2.2113,2.234 h 15.8227 l -0.009,-0.987 1.411,-1.539 h 4.893 l 1.456,1.466 z"
       id="path46" />
  </mask>
  <path
     d="M 75.488,50.883 69.469,44.802 V 25.764 h -6.544 v -8.133 h 6.544 V 8.772 h 10.405 v 8.859 h 11.188 v 8.133 H 79.874 V 41.43 l 0.851,0.859 h 10.862 v 8.594 z"
     fill="#ffffff"
     id="path47" />
  <path
     d="M 97.538,50.883 V 17.631 h 8.312 v 2.646 h 1.243 l 3.075,-2.646 h 12.038 v 8.594 h -11.188 l -3.075,2.513 v 22.145 z"
     fill="#ffffff"
     id="path48" />
  <path
     d="M 126.131,12.409 V 4.605 h 10.663 v 7.799 h -10.663 z m 0.131,38.474 V 17.631 h 10.406 v 33.252 z"
     fill="#ffffff"
     id="path49" />
  <path
     d="M 146.806,50.883 V 12.674 h -6.543 V 4.605 h 16.949 v 46.274 h -10.406 z"
     fill="#ffffff"
     id="path50" />
  <path
     d="M 166.5,50.883 V 4.605 h 10.406 V 19.61 h 0.655 l 2.42,-1.983 h 13.869 l 7.263,7.337 v 25.915 h -10.406 v -22.41 l -2.225,-2.248 h -8.243 l -3.338,2.709 v 21.949 h -10.405 z"
     fill="#ffffff"
     id="path51" />
  <path
     d="m 213.806,50.883 -6.019,-6.081 v -8.461 l 6.218,-6.282 h 18.188 v -2.116 l -1.899,-1.983 h -18.057 v -8.329 h 23.619 l 6.738,6.808 v 26.444 h -8.311 v -2.709 h -1.05 l -3.206,2.709 h -16.225 z m 15.376,-7.931 3.011,-2.444 v -3.701 h -12.368 l -1.637,1.654 v 3.303 l 1.176,1.188 z"
     fill="#ffffff"
     id="path52" />
  <path
     d="m 250.449,50.883 v -7.931 h 21.005 l 1.176,-1.188 v -2.312 l -1.176,-1.256 h -15.506 l -6.019,-6.018 v -8.53 l 6.019,-6.017 h 25.256 v 7.932 H 261.51 l -1.175,1.188 v 2.312 l 1.175,1.187 h 15.507 l 6.019,6.082 v 8.461 l -6.019,6.081 h -26.563 z"
     fill="#ffffff"
     id="path53" />
  <path
     d="M 39.854,7.118 H 7.4615 L 0,15.246 0.3934,47.777 7.656,54.721 h 31.216 l 8.249,-6.944 0.393,-32.928 -7.656,-7.735 z m 1.392,37.776 -1.564,1.315 H 35.01 L 33.599,44.866 33.59,44.117 H 16.0717 l -4.0519,-4.094 v -6.698 l 4.0519,-4.093 H 28.598 l 2.211,-2.235 V 23.461 L 28.598,21.227 H 13.9191 l -0.009,0.873 -1.5647,1.32 H 7.6741 L 6.2632,22.072 6.2044,17.174 7.6153,15.635 h 4.8974 l 1.4516,1.471 -0.009,0.959 H 30.258 l 4.051,4.094 V 28.3 l -4.051,4.093 H 17.7313 L 15.52,34.627 v 4.094 l 2.2113,2.234 H 33.554 l -0.009,-0.987 1.411,-1.539 h 4.893 l 1.456,1.466 z"
     fill="#ffffff"
     id="path54" />
  <path
     d="m 155.488,234.883 -6.019,-6.081 v -19.038 h -6.544 v -8.133 h 6.544 v -8.859 h 10.405 v 8.859 h 11.188 v 8.133 h -11.188 v 15.666 l 0.851,0.859 h 10.862 v 8.594 z"
     stroke="#ffffff"
     stroke-width="2"
     mask="url(#path-5-inside-2_22_1760)"
     id="path55"
     transform="translate(-80,-184)" />
  <path
     d="m 177.538,234.883 v -33.252 h 8.312 v 2.646 h 1.243 l 3.075,-2.646 h 12.038 v 8.594 h -11.188 l -3.075,2.513 v 22.145 z"
     stroke="#ffffff"
     stroke-width="2"
     mask="url(#path-5-inside-2_22_1760)"
     id="path56"
     transform="translate(-80,-184)" />
  <path
     d="m 206.131,196.409 v -7.804 h 10.663 v 7.799 h -10.663 z m 0.131,38.474 v -33.252 h 10.406 v 33.252 z"
     stroke="#ffffff"
     stroke-width="2"
     mask="url(#path-5-inside-2_22_1760)"
     id="path57"
     transform="translate(-80,-184)" />
  <path
     d="m 226.806,234.883 v -38.209 h -6.543 v -8.069 h 16.949 v 46.274 h -10.406 z"
     stroke="#ffffff"
     stroke-width="2"
     mask="url(#path-5-inside-2_22_1760)"
     id="path58"
     transform="translate(-80,-184)" />
  <path
     d="m 246.5,234.883 v -46.278 h 10.406 v 15.005 h 0.655 l 2.42,-1.983 h 13.869 l 7.263,7.337 v 25.915 h -10.406 v -22.41 l -2.225,-2.248 h -8.243 l -3.338,2.709 v 21.949 h -10.405 z"
     stroke="#ffffff"
     stroke-width="2"
     mask="url(#path-5-inside-2_22_1760)"
     id="path59"
     transform="translate(-80,-184)" />
  <path
     d="m 293.806,234.883 -6.019,-6.081 v -8.461 l 6.218,-6.282 h 18.188 v -2.116 l -1.899,-1.983 h -18.057 v -8.329 h 23.619 l 6.738,6.808 v 26.444 h -8.311 v -2.709 h -1.05 l -3.206,2.709 h -16.225 z m 15.376,-7.931 3.011,-2.444 v -3.701 h -12.368 l -1.637,1.654 v 3.303 l 1.176,1.188 z"
     stroke="#ffffff"
     stroke-width="2"
     mask="url(#path-5-inside-2_22_1760)"
     id="path60"
     transform="translate(-80,-184)" />
  <path
     d="m 330.449,234.883 v -7.931 h 21.005 l 1.176,-1.188 v -2.312 l -1.176,-1.256 h -15.506 l -6.019,-6.018 v -8.53 l 6.019,-6.017 h 25.256 v 7.932 H 341.51 l -1.175,1.188 v 2.312 l 1.175,1.187 h 15.507 l 6.019,6.082 v 8.461 l -6.019,6.081 h -26.563 z"
     stroke="#ffffff"
     stroke-width="2"
     mask="url(#path-5-inside-2_22_1760)"
     id="path61"
     transform="translate(-80,-184)" />
  <path
     d="M 119.854,191.118 H 87.4615 L 80,199.246 l 0.3934,32.531 7.2626,6.944 h 31.216 l 8.249,-6.944 0.393,-32.928 -7.656,-7.735 z m 1.392,37.776 -1.564,1.315 h -4.672 l -1.411,-1.343 -0.009,-0.749 H 96.0717 l -4.0519,-4.094 v -6.698 l 4.0519,-4.093 h 12.5263 l 2.211,-2.235 v -3.536 l -2.211,-2.234 H 93.9191 l -0.009,0.873 -1.5647,1.32 h -4.6713 l -1.4109,-1.348 -0.0588,-4.898 1.4109,-1.539 h 4.8974 l 1.4516,1.471 -0.009,0.959 h 16.3027 l 4.051,4.094 v 6.141 l -4.051,4.093 H 97.7313 l -2.2113,2.234 v 4.094 l 2.2113,2.234 h 15.8227 l -0.009,-0.987 1.411,-1.539 h 4.893 l 1.456,1.466 z"
     stroke="#ffffff"
     stroke-width="2"
     mask="url(#path-5-inside-2_22_1760)"
     id="path62"
     transform="translate(-80,-184)" />
</svg>
