<?xml version="1.0" encoding="UTF-8" standalone="no"?>
<svg
   width="430.61362"
   height="419.88626"
   viewBox="0 0 430.61362 419.88626"
   fill="none"
   version="1.1"
   id="svg228"
   sodipodi:docname="Ilustrações.svg"
   inkscape:version="1.3.2 (091e20e, 2023-11-25, custom)"
   xmlns:inkscape="http://www.inkscape.org/namespaces/inkscape"
   xmlns:sodipodi="http://sodipodi.sourceforge.net/DTD/sodipodi-0.dtd"
   xmlns="http://www.w3.org/2000/svg"
   xmlns:svg="http://www.w3.org/2000/svg">
  <defs
     id="defs228" />
  <sodipodi:namedview
     id="namedview228"
     pagecolor="#ffffff"
     bordercolor="#666666"
     borderopacity="1.0"
     inkscape:showpageshadow="2"
     inkscape:pageopacity="0.0"
     inkscape:pagecheckerboard="0"
     inkscape:deskcolor="#d1d1d1"
     inkscape:zoom="0.67948718"
     inkscape:cx="431.20755"
     inkscape:cy="165.56604"
     inkscape:window-width="1920"
     inkscape:window-height="1009"
     inkscape:window-x="-8"
     inkscape:window-y="-8"
     inkscape:window-maximized="1"
     inkscape:current-layer="svg228" />
  <path
     d="m 63.062375,386.942 c 84.082005,43.925 220.407005,43.926 304.489005,10e-4 84.083,-43.927 84.083,-115.143 0,-159.069 -84.083,-43.926 -220.407,-43.926 -304.490005,-0.001 -84.082,43.926 -84.082,115.144 0.001,159.069 z"
     fill="#f5f5f5"
     id="path2" />
  <path
     d="m 169.25938,348.791 c 22.655,10.799 59.385,10.799 82.04,0 22.655,-10.796 22.655,-28.303 0,-39.102 -22.655,-10.796 -59.385,-10.796 -82.04,0 -22.655,10.799 -22.655,28.306 0,39.102 z"
     fill="#ebebeb"
     id="path3" />
  <path
     d="m 365.47038,322.06 -80.971,46.75 c -1.196,0.69 -3.134,0.69 -4.33,0 l -101.285,-58.476 c -1.196,-0.69 -1.196,-1.81 0,-2.5 l 80.974,-46.75 c 1.196,-0.69 3.134,-0.69 4.33,0 l 101.282,58.476 c 1.195,0.691 1.195,1.81 0,2.5 z"
     fill="#ebebeb"
     id="path4" />
  <path
     d="m 388.00738,65.073 v 21.469 c 0,0 -8.825,4.128 -25.034,4.128 -16.201,0 -25.01,-4.135 -25.01,-4.135 v -21.05 l 16.881,-47.771 c -0.222,1.497 0.658,3.034 2.638,4.175 3.153,1.822 6.191,2.028 9.732,0.61 0.452,-0.174 0.871,-0.38 1.268,-0.61 2.099,-1.212 2.963,-2.868 2.583,-4.444 z"
     fill="#f3541c"
     id="path5" />
  <path
     opacity="0.5"
     d="m 388.00738,65.073 v 21.469 c 0,0 -8.825,4.128 -25.034,4.128 -16.201,0 -25.01,-4.135 -25.01,-4.135 v -21.05 l 16.881,-47.771 c -0.222,1.497 0.658,3.034 2.638,4.175 3.153,1.822 6.191,2.028 9.732,0.61 0.452,-0.174 0.871,-0.38 1.268,-0.61 2.099,-1.212 2.963,-2.868 2.583,-4.444 z"
     fill="#ffffff"
     id="path6" />
  <path
     d="m 386.06838,215.567 c -1.221,1.688 -3.017,3.271 -5.396,4.645 -9.775,5.644 -25.624,5.644 -35.399,0 -2.38,-1.374 -4.175,-2.957 -5.396,-4.645 -1.194,-1.651 -1.832,-3.403 -1.918,-5.163 v 10.326 0.822 c 0.174,3.56 2.608,7.09 7.314,9.808 9.775,5.644 25.624,5.644 35.399,0 4.888,-2.822 7.331,-6.52 7.331,-10.219 v -11.148 c 0,1.898 -0.648,3.795 -1.935,5.574 z"
     fill="#f3541c"
     id="path7" />
  <path
     d="m 386.06838,204.419 c -1.221,1.688 -3.017,3.271 -5.396,4.645 -0.572,0.33 -1.169,0.637 -1.78,0.929 -9.222,4.4 -22.616,4.4 -31.838,0 -0.611,-0.292 -1.208,-0.599 -1.78,-0.929 -2.38,-1.374 -4.175,-2.956 -5.396,-4.645 -1.194,-1.651 -1.832,-3.403 -1.918,-5.163 v 10.326 0.822 c 0.086,1.76 0.724,3.512 1.918,5.163 1.221,1.688 3.017,3.271 5.396,4.645 9.775,5.644 25.624,5.644 35.399,0 2.38,-1.374 4.175,-2.956 5.396,-4.645 1.287,-1.779 1.935,-3.676 1.935,-5.574 v -11.148 c -0.001,1.898 -0.649,3.795 -1.936,5.574 z"
     fill="#ffede7"
     id="path8" />
  <path
     d="m 386.06838,193.272 c -1.221,1.688 -3.017,3.271 -5.396,4.645 -0.572,0.33 -1.169,0.637 -1.78,0.929 -9.222,4.4 -22.616,4.4 -31.838,0 -0.611,-0.292 -1.208,-0.599 -1.78,-0.929 -2.38,-1.374 -4.175,-2.957 -5.396,-4.645 -1.194,-1.651 -1.832,-3.403 -1.918,-5.163 v 10.326 0.822 c 0.086,1.76 0.724,3.512 1.918,5.163 1.221,1.688 3.017,3.271 5.396,4.645 0.572,0.33 1.169,0.637 1.78,0.929 9.222,4.4 22.617,4.4 31.838,0 0.611,-0.292 1.208,-0.599 1.78,-0.929 2.38,-1.374 4.175,-2.956 5.396,-4.645 1.287,-1.779 1.935,-3.676 1.935,-5.574 v -11.148 c 0,1.898 -0.648,3.794 -1.935,5.574 z"
     fill="#f3541c"
     id="path9" />
  <path
     d="m 337.95938,65.485 v 121.801 0.822 c 0.086,1.76 0.724,3.512 1.918,5.163 1.221,1.688 3.017,3.271 5.396,4.645 0.572,0.33 1.169,0.637 1.78,0.929 2.309,1.102 4.879,1.927 7.58,2.477 l -4.525,-129.228 z"
     fill="#f3541c"
     id="path10" />
  <path
     d="m 375.84438,72.093 -4.525,129.228 c 2.698,-0.55 5.266,-1.375 7.573,-2.476 0.611,-0.292 1.208,-0.599 1.78,-0.929 2.38,-1.374 4.175,-2.956 5.396,-4.645 1.287,-1.779 1.935,-3.676 1.935,-5.574 V 65.074 Z"
     fill="#f3541c"
     id="path11" />
  <path
     d="m 337.95938,65.485 v 121.801 0.822 c 0.086,1.76 0.724,3.512 1.918,5.163 1.221,1.688 3.017,3.271 5.396,4.645 0.572,0.33 1.169,0.637 1.78,0.929 2.309,1.102 4.879,1.927 7.58,2.477 l -4.525,-129.228 z"
     fill="#fa7252"
     id="path12" />
  <path
     d="m 375.84438,72.093 -4.525,129.228 c 2.698,-0.55 5.266,-1.375 7.573,-2.476 0.611,-0.292 1.208,-0.599 1.78,-0.929 2.38,-1.374 4.175,-2.956 5.396,-4.645 1.287,-1.779 1.935,-3.676 1.935,-5.574 V 65.074 Z"
     fill="#ff7d5f"
     id="path13" />
  <path
     d="m 350.10938,72.094 v 127.985 c 1.451,0.503 2.962,0.925 4.525,1.243 2.694,0.548 5.518,0.823 8.342,0.823 2.824,0 5.648,-0.275 8.342,-0.824 1.564,-0.319 3.075,-0.741 4.525,-1.244 V 72.093 Z"
     fill="#f55e29"
     id="path14" />
  <path
     d="m 368.48038,21.889 c -0.396,0.23 -0.816,0.436 -1.268,0.61 -3.541,1.418 -6.579,1.212 -9.732,-0.61 -1.98,-1.141 -2.86,-2.678 -2.638,-4.175 l 5.761,-16.13 c 0.444,-1.061 1.403,-1.584 2.369,-1.584 h 0.008 c 0.967,0 1.933,0.523 2.377,1.576 l 5.698,15.845 c 0,0.008 0.008,0.016 0.008,0.024 0.38,1.576 -0.484,3.232 -2.583,4.444 z"
     fill="#fa5c37"
     id="path15" />
  <path
     d="m 380.67238,231.359 c -8.4,4.85 -21.274,5.52 -30.936,2.035 -0.542,-0.195 -1.07,-0.409 -1.589,-0.63 -0.242,-0.103 -0.489,-0.199 -0.725,-0.308 -0.741,-0.34 -1.462,-0.701 -2.148,-1.096 -4.706,-2.717 -7.14,-6.248 -7.314,-9.808 v 30.351 c -0.188,3.834 2.246,7.703 7.314,10.63 0.604,0.349 1.232,0.675 1.879,0.981 0.242,0.114 0.499,0.21 0.745,0.318 0.414,0.181 0.824,0.368 1.253,0.532 0.331,0.127 0.676,0.233 1.014,0.35 0.361,0.124 0.714,0.257 1.083,0.369 0.402,0.123 0.816,0.225 1.227,0.335 0.317,0.085 0.629,0.178 0.952,0.255 0.47,0.112 0.95,0.202 1.428,0.297 0.271,0.053 0.538,0.116 0.812,0.164 0.54,0.095 1.088,0.168 1.636,0.242 0.217,0.029 0.431,0.066 0.649,0.091 0.609,0.072 1.223,0.122 1.838,0.167 0.159,0.012 0.316,0.03 0.475,0.04 0.67,0.042 1.341,0.062 2.014,0.073 0.105,0.002 0.209,0.008 0.314,0.009 0.722,0.006 1.442,-0.009 2.163,-0.039 0.055,-0.002 0.109,-0.002 0.164,-0.005 0.761,-0.034 1.517,-0.09 2.271,-0.164 0.014,-10e-4 0.027,-0.002 0.04,-0.003 4.643,-0.461 9.093,-1.685 12.774,-3.664 0.22,-0.118 0.453,-0.224 0.667,-0.348 4.888,-2.822 7.332,-6.52 7.332,-10.219 v -31.173 c 0,3.698 -2.444,7.397 -7.332,10.218 z"
     fill="#fa5c37"
     id="path16" />
  <path
     d="m 78.789375,249.079 c -2.892,-0.73 -18.323,-9.514 -19.889,-10.58 -1.567,-1.067 -4.676,-3.276 -4.676,-7.085 0,-3.378 0.354,-35.152 3.11,-50.507 1.356,-7.553 6.255,-17.449 15.855,-23.398 9.6,-5.95 19.243,-10.256 27.379005,-6.882 8.137,3.374 15.551,9.592 18.749,17.092 3.198,7.5 5.392,22.519 5.619,28.329 0.227,5.809 0,25.735 0,27.502 0,1.767 -0.32,4.073 -9.847,9.972 -9.527,5.9 -22.694005,12.996 -26.764005,14.828 -3.097,1.394 -6.914,1.39 -9.536,0.729 z"
     fill="#f3541c"
     id="path17" />
  <path
     d="m 76.406375,161.637 c -0.877,0.506 -3.42,-0.748 -3.802,-1.376 -0.382,-0.628 -0.479,-6.08 1.417,-9.093 1.897,-3.013 13.758,-8.555 16.688,-8.146 2.929,0.408 5.078,2.7 5.443,3.476 0.365,0.776 0.764,5.847 0,6.882 -0.764,1.035 -3.471,-0.556 -3.708,-1.002 -0.238,-0.446 0.893,-4.143 -1.021,-4.916 -1.737,-0.701 -9.987,2.806 -13.359,5.633 -1.459,1.223 -1.386,4.279 -1.323,5.791 0.064,1.51 0.11,2.494 -0.335,2.751 z"
     fill="#f79978"
     id="path18" />
  <path
     d="m 74.021375,197.423 c 1.705,-16.516 4.768,-26.151 20.92,-33.343 16.151005,-7.192 22.411005,-1.067 24.702005,4.439 3.02,7.722 5.074,21.917 5.293,27.527 0.227,5.809 0,25.735 0,27.502 0,1.767 -0.32,4.073 -9.847,9.972 -9.527,5.9 -22.694005,12.996 -26.764005,14.828 -3.097,1.395 -6.914,1.391 -9.536,0.73 -0.401,-0.101 -1.051,-0.362 -1.865,-0.731 -5.029,-6.431 -4.459,-35.849 -2.903,-50.924 z"
     fill="#f79978"
     id="path19" />
  <path
     d="m 111.67238,157.63 c -4.211,-2.469 -11.137,-4.096 -21.291005,0.429 -18.162,8.092 -22.771,18.222 -24.603,35.966 -0.336,3.254 -0.823,7.132 -1.033,11.305 l -1.499,-0.905 c 0.212,-4.502 0.646,-8.356 1.027,-11.832 1.965,-17.915 7.375,-27.818 24.726,-35.544 9.602,-4.276 15.920005,-3.714 20.095005,-1.612 0.796,0.612 1.543,1.213 2.578,2.193 z"
     fill="#e03b14"
     id="path20" />
  <path
     d="m 112.30338,158.09 c -4.211,-2.468 -11.137,-4.096 -21.291005,0.428 -18.161,8.093 -22.771,18.222 -24.603,35.966 -0.336,3.254 -0.823,7.132 -1.033,11.305 l -1.499,-0.905 c 0.212,-4.502 0.646,-8.356 1.027,-11.831 1.965,-17.915 7.375,-27.818 24.726,-35.544 9.602,-4.276 16.090005,-3.566 20.266005,-1.464 0.796,0.611 1.373,1.065 2.407,2.045 z"
     fill="#f79978"
     id="path21" />
  <path
     d="m 106.42738,173.785 -5.488,-3.131 c -0.563,-0.321 -1.282005,-0.126 -1.605005,0.436 l -5.633,9.79 c -0.323,0.562 -0.132,1.282 0.429,1.609 l 5.421,3.161 c 0.560005,0.326 1.277005,0.137 1.602005,-0.424 l 5.705,-9.843 c 0.325,-0.561 0.132,-1.277 -0.431,-1.598 z"
     fill="#e03b14"
     id="path22" />
  <path
     d="m 100.53938,184.528 5.407,-9.328 c 0.163,-0.281 0.066,-0.638 -0.215,-0.799 l -4.976,-2.839 c -0.282,-0.161 -0.641,-0.063 -0.803005,0.218 l -5.344,9.288 c -0.162,0.281 -0.066,0.641 0.214,0.804 l 4.916,2.867 c 0.280005,0.165 0.639005,0.07 0.801005,-0.211 z"
     fill="#f79978"
     id="path23" />
  <path
     d="m 101.69838,180.068 c 0.288,-0.166 0.521,-0.534 0.521,-0.822 v -4.464 c 0,-0.288 -0.233,-0.386 -0.521,-0.22 -0.288,0.166 -0.521,0.534 -0.521,0.822 v 4.463 c 0,0.289 0.233,0.387 0.521,0.221 z"
     fill="#f3541c"
     id="path24" />
  <path
     d="m 98.793375,181.745 c 0.288,-0.166 0.521,-0.534 0.521,-0.822 v -4.463 c 0,-0.288 -0.233,-0.386 -0.521,-0.22 -0.288,0.166 -0.521,0.534 -0.521,0.822 v 4.463 c 0,0.288 0.233,0.387 0.521,0.22 z"
     fill="#f3541c"
     id="path25" />
  <path
     d="m 81.505375,211.379 c 0,0 2.724,2.243 4.676,10.681 1.951,8.437 3.141,19.074 0.983,20.347 -2.158,1.274 -5.226,-1.395 -5.991,-2.316 -1.57,-1.89 -1.179,-21.95 0.332,-28.712 z"
     fill="#e03b14"
     id="path26" />
  <path
     d="m 81.505375,211.379 c 0,0 2.724,2.243 4.676,10.681 1.951,8.437 3.141,19.074 0.983,20.347 l 33.042005,-19.461 c 2.158,-1.274 2.689,-12.445 0.738,-20.882 -1.285,-5.559 -3.653,-8.197 -5.119,-9.35 -0.681,-0.536 -1.62,-0.594 -2.367,-0.154 z"
     fill="#f3541c"
     id="path27" />
  <path
     d="m 115.12438,193.988 c 1.583,0.786 4.261,2.931 5.472,8.646 0.382,1.804 -0.253,3.562 -1.352,4.339 -1.1,0.777 -24.713005,14.21 -27.844005,16.076 -2.7,1.609 -4.106,-0.53 -4.699,-1.866 h -0.002 c -0.985,-2.382 -1.863,-4.233 -2.604,-5.653 -1.383,-3.155 -2.591,-4.152 -2.591,-4.152 l 31.472005,-17.294 c 0.657,-0.386 1.466,-0.434 2.148,-0.096 z"
     fill="#e03b14"
     id="path28" />
  <path
     d="m 65.791375,206.755 c 0,0 0.948,3.683 0.892,5.255 -0.013,0.363 -0.485,0.55 -0.629,0.554 -0.841,0.02 -2.885,-1.253 -3.057,-1.595 -0.173,-0.342 0.818,-4.48 0.818,-4.48 z"
     fill="#e03b14"
     id="path29" />
  <path
     d="m 66.811375,205.354 c 0,-1.053 -0.854,-1.907 -1.907,-1.907 -1.053,0 -1.907,0.854 -1.907,1.907 0,1.053 0.854,1.907 1.907,1.907 1.054,0 1.907,-0.854 1.907,-1.907 z"
     fill="#e03b14"
     id="path30" />
  <path
     d="m 90.709375,147.374 c 2.091,-0.201 4.057,-0.018 4.561,2.086 0.503,2.103 0.32,3.993 0,4.26 -1.094,-0.04 -2.648,-1.01 -2.826,-1.343 -0.238,-0.446 0.893,-4.143 -1.021,-4.916 -0.175,-0.07 -0.419,-0.096 -0.714,-0.087 z"
     fill="#e03b14"
     id="path31" />
  <path
     d="m 113.64038,192.452 c 0.656,-0.386 1.465,-0.435 2.147,-0.096 1.583,0.786 4.262,2.931 5.472,8.646 0.382,1.804 -0.253,3.562 -1.352,4.339 -1.1,0.777 -24.713005,14.21 -27.844005,16.076 -2.7,1.609 -4.106,-0.53 -4.699,-1.866 -3.263,-6.84 -5.858,-8.172 -5.858,-8.172 z"
     fill="#f3541c"
     id="path32" />
  <path
     d="M 107.97538,308.793 81.497375,293.506 c -1.313,-0.758 -2.378,-2.603 -2.378,-4.119 l -0.013,0.305 c 0,-1.517 1.065,-3.361 2.378,-4.119 l 53.251005,-30.744 c 1.313,-0.758 3.443,-0.758 4.757,0 l 26.478,15.287 c 1.314,0.758 2.378,2.603 2.378,4.119 l 0.013,-0.305 c 0,1.517 -1.065,3.361 -2.378,4.119 l -53.251,30.744 c -1.314,0.759 -3.444,0.759 -4.757,0 z"
     fill="#4f64d9"
     id="path33" />
  <path
     opacity="0.7"
     d="M 107.97538,308.793 81.497375,293.506 c -1.313,-0.758 -2.378,-2.603 -2.378,-4.119 l -0.013,0.305 c 0,-1.517 1.065,-3.361 2.378,-4.119 l 53.251005,-30.744 c 1.313,-0.758 3.443,-0.758 4.757,0 l 26.478,15.287 c 1.314,0.758 2.378,2.603 2.378,4.119 l 0.013,-0.305 c 0,1.517 -1.065,3.361 -2.378,4.119 l -53.251,30.744 c -1.314,0.759 -3.444,0.759 -4.757,0 z"
     fill="#000000"
     id="path34" />
  <path
     d="m 110.34038,268.912 -28.856005,16.66 c -1.314,0.758 -2.378,2.603 -2.378,4.119 l 0.013,-0.305 c 0,1.517 1.065,3.361 2.378,4.119 l 26.478005,15.287 c 0.657,0.379 1.518,0.569 2.378,0.569 z"
     fill="#4f64d9"
     id="path35" />
  <path
     opacity="0.7"
     d="m 110.34038,268.912 -28.856005,16.66 c -1.314,0.758 -2.378,2.603 -2.378,4.119 l 0.013,-0.305 c 0,1.517 1.065,3.361 2.378,4.119 l 26.478005,15.287 c 0.657,0.379 1.518,0.569 2.378,0.569 z"
     fill="#000000"
     id="path36" />
  <path
     d="m 81.483375,288.319 26.478005,15.287 c 1.314,0.758 3.443,0.758 4.757,0 l 53.251,-30.744 c 1.314,-0.758 1.314,-1.988 0,-2.746 l -26.478,-15.287 c -1.314,-0.758 -3.443,-0.758 -4.757,0 l -53.251005,30.744 c -1.313,0.758 -1.313,1.987 0,2.746 z"
     fill="#4f64d9"
     id="path37" />
  <path
     opacity="0.5"
     d="m 81.483375,288.319 26.478005,15.287 c 1.314,0.758 3.443,0.758 4.757,0 l 53.251,-30.744 c 1.314,-0.758 1.314,-1.988 0,-2.746 l -26.478,-15.287 c -1.314,-0.758 -3.443,-0.758 -4.757,0 l -53.251005,30.744 c -1.313,0.758 -1.313,1.987 0,2.746 z"
     fill="#000000"
     id="path38" />
  <path
     d="m 81.483375,283.293 v 2.534 l 27.484005,15.868 c 0.849,0.49 1.895,0.49 2.744,0 l 54.257,-31.325 v -2.619 l -55.628,26.966 z"
     fill="#4f64d9"
     id="path39" />
  <path
     d="M 107.96238,298.58 81.484375,283.293 c -1.313,-0.758 -2.378,-2.603 -2.378,-4.119 v -4.897 c 0,-1.517 1.065,-3.361 2.378,-4.119 l 53.251005,-30.744 c 1.313,-0.758 3.443,-0.758 4.757,0 l 26.478,15.287 c 1.314,0.758 2.378,2.603 2.378,4.119 v 4.897 c 0,1.517 -1.065,3.276 -2.378,4.034 l -53.251,30.829 c -1.314,0.759 -3.444,0.759 -4.757,0 z"
     fill="#4f64d9"
     id="path40" />
  <path
     opacity="0.6"
     d="M 107.96238,298.58 81.484375,283.293 c -1.313,-0.758 -2.378,-2.603 -2.378,-4.119 v -4.897 c 0,-1.517 1.065,-3.361 2.378,-4.119 l 53.251005,-30.744 c 1.313,-0.758 3.443,-0.758 4.757,0 l 26.478,15.287 c 1.314,0.758 2.378,2.603 2.378,4.119 v 4.897 c 0,1.517 -1.065,3.276 -2.378,4.034 l -53.251,30.829 c -1.314,0.759 -3.444,0.759 -4.757,0 z"
     fill="#000000"
     id="path41" />
  <path
     d="m 110.34038,253.497 -28.856005,16.66 c -1.314,0.758 -2.378,2.603 -2.378,4.119 v 4.897 c 0,1.517 1.065,3.361 2.378,4.119 l 26.478005,15.287 c 0.657,0.379 1.517,0.569 2.378,0.569 z"
     fill="#4f64d9"
     id="path42" />
  <path
     opacity="0.7"
     d="m 110.34038,253.497 -28.856005,16.66 c -1.314,0.758 -2.378,2.603 -2.378,4.119 v 4.897 c 0,1.517 1.065,3.361 2.378,4.119 l 26.478005,15.287 c 0.657,0.379 1.517,0.569 2.378,0.569 z"
     fill="#000000"
     id="path43" />
  <path
     d="m 81.483375,272.904 26.478005,15.287 c 1.314,0.758 3.443,0.758 4.757,0 l 53.251,-30.744 c 1.314,-0.758 1.314,-1.988 0,-2.746 l -26.478,-15.287 c -1.314,-0.758 -3.443,-0.758 -4.757,0 l -53.251005,30.744 c -1.313,0.758 -1.313,1.987 0,2.746 z"
     fill="#4f64d9"
     id="path44" />
  <path
     opacity="0.5"
     d="m 81.483375,272.904 26.478005,15.287 c 1.314,0.758 3.443,0.758 4.757,0 l 53.251,-30.744 c 1.314,-0.758 1.314,-1.988 0,-2.746 l -26.478,-15.287 c -1.314,-0.758 -3.443,-0.758 -4.757,0 l -53.251005,30.744 c -1.313,0.758 -1.313,1.987 0,2.746 z"
     fill="#000000"
     id="path45" />
  <path
     d="m 118.41638,260.754 c -2.933,1.693 -2.933,4.427 0,6.107 2.933,1.679 7.688,1.679 10.621,0 2.933,-1.679 2.933,-4.413 0,-6.107 -2.933,-1.694 -7.688,-1.694 -10.621,0 z"
     fill="#4f64d9"
     id="path46" />
  <path
     d="m 161.65438,262.54 c -0.513,0.291 -0.929,1.015 -0.929,1.617 0,0.602 0.416,0.854 0.929,0.563 0.513,-0.291 0.929,-1.015 0.929,-1.617 0,-0.602 -0.416,-0.854 -0.929,-0.563 z"
     fill="#4f64d9"
     id="path47" />
  <path
     d="m 161.65438,266.132 c -0.513,0.291 -0.929,1.015 -0.929,1.617 0,0.602 0.416,0.854 0.929,0.563 0.513,-0.291 0.929,-1.015 0.929,-1.617 0,-0.603 -0.416,-0.854 -0.929,-0.563 z"
     fill="#4f64d9"
     id="path48" />
  <path
     d="m 96.874375,328.952 c -0.119,0 -0.24,-0.03 -0.351,-0.095 l -25.655,-14.887 c -1.368,-0.794 -2.184,-2.212 -2.182,-3.793 0.002,-1.582 0.821,-2.998 2.19,-3.789 l 18.809,-10.859 c 0.333,-0.193 0.763,-0.079 0.955,0.256 0.193,0.334 0.079,0.762 -0.256,0.955 l -18.809,10.859 c -0.932,0.538 -1.489,1.503 -1.491,2.579 -10e-4,1.077 0.554,2.042 1.485,2.583 l 25.655,14.887 c 0.334,0.194 0.448,0.622 0.254,0.955 -0.128,0.224 -0.363,0.349 -0.604,0.349 z"
     fill="#4f64d9"
     id="path49" />
  <path
     d="m 129.01538,314.605 -5.561,-22.329 c -0.079,-0.319 -0.185,-0.613 -0.303,-0.894 l 1.618,-0.235 -3.528,-2.04 c -1.341,-0.782 -3.074,-0.772 -4.771,0.212 l -23.192005,13.446 c -3.015,1.748 -5.458,5.991 -5.457,9.476 l 0.006,26.843 c 10e-4,2.133 0.524,3.606 1.589,4.116 l -0.007,0.002 3.322,1.916 -0.803,-2.116 c 0.059,-0.026 0.114,-0.045 0.174,-0.074 3.814,-1.821 5.196,-5.137 6.335,-8.43 l 4.409005,-12.743 c 1.139,-3.294 3.978,-7.068 6.34,-8.43 2.362,-1.362 5.676,-0.012 7.403,3.015 l 2.214,3.881 c 0.749,1.313 1.799,2.307 2.941,2.901 l 3.386,1.965 -0.861,-1.335 c 0.689,-0.014 1.359,-0.185 1.966,-0.536 2.378,-1.375 3.623,-5.229 2.78,-8.611 z"
     fill="#4f64d9"
     id="path50" />
  <path
     opacity="0.7"
     d="m 129.01538,314.605 -5.561,-22.329 c -0.079,-0.319 -0.185,-0.613 -0.303,-0.894 l 1.618,-0.235 -3.528,-2.04 c -1.341,-0.782 -3.074,-0.772 -4.771,0.212 l -23.192005,13.446 c -3.015,1.748 -5.458,5.991 -5.457,9.476 l 0.006,26.843 c 10e-4,2.133 0.524,3.606 1.589,4.116 l -0.007,0.002 3.322,1.916 -0.803,-2.116 c 0.059,-0.026 0.114,-0.045 0.174,-0.074 3.814,-1.821 5.196,-5.137 6.335,-8.43 l 4.409005,-12.743 c 1.139,-3.294 3.978,-7.068 6.34,-8.43 2.362,-1.362 5.676,-0.012 7.403,3.015 l 2.214,3.881 c 0.749,1.313 1.799,2.307 2.941,2.901 l 3.386,1.965 -0.861,-1.335 c 0.689,-0.014 1.359,-0.185 1.966,-0.536 2.378,-1.375 3.623,-5.229 2.78,-8.611 z"
     fill="#000000"
     id="path51" />
  <path
     d="m 123.15138,291.382 1.618,-0.235 -3.528,-2.04 c -1.341,-0.782 -3.074,-0.772 -4.771,0.212 l -23.192005,13.446 c -1.22,0.708 -2.335,1.833 -3.244,3.142 l 5.515,3.362 28.173005,-15.915 -0.268,-1.077 c -0.079,-0.32 -0.185,-0.614 -0.303,-0.895 z"
     fill="#4f64d9"
     id="path52" />
  <path
     opacity="0.5"
     d="m 123.15138,291.382 1.618,-0.235 -3.528,-2.04 c -1.341,-0.782 -3.074,-0.772 -4.771,0.212 l -23.192005,13.446 c -1.22,0.708 -2.335,1.833 -3.244,3.142 l 5.515,3.362 28.173005,-15.915 -0.268,-1.077 c -0.079,-0.32 -0.185,-0.614 -0.303,-0.895 z"
     fill="#000000"
     id="path53" />
  <path
     d="m 129.84038,325.299 c -2.378,1.373 -5.706,0.032 -7.433,-2.995 l -2.214,-3.881 c -1.727,-3.027 -5.042,-4.377 -7.404,-3.015 -2.362,1.362 -5.201,5.136 -6.34,8.43 l -4.409,12.743 c -1.139,3.294 -2.522005,6.609 -6.335005,8.43 -2.885,1.378 -4.273,-0.359 -4.274,-3.844 l -0.006,-26.844 c -0.001,-3.485 2.443,-7.727 5.458,-9.475 l 23.191005,-13.446 c 3.015,-1.748 6.142,-0.424 6.984,2.958 l 5.561,22.329 c 0.844,3.382 -0.401,7.237 -2.779,8.61 z"
     fill="#4f64d9"
     id="path54" />
  <path
     opacity="0.6"
     d="m 129.84038,325.299 c -2.378,1.373 -5.706,0.032 -7.433,-2.995 l -2.214,-3.881 c -1.727,-3.027 -5.042,-4.377 -7.404,-3.015 -2.362,1.362 -5.201,5.136 -6.34,8.43 l -4.409,12.743 c -1.139,3.294 -2.522005,6.609 -6.335005,8.43 -2.885,1.378 -4.273,-0.359 -4.274,-3.844 l -0.006,-26.844 c -0.001,-3.485 2.443,-7.727 5.458,-9.475 l 23.191005,-13.446 c 3.015,-1.748 6.142,-0.424 6.984,2.958 l 5.561,22.329 c 0.844,3.382 -0.401,7.237 -2.779,8.61 z"
     fill="#000000"
     id="path55" />
  <path
     d="m 120.84838,299.133 0.58,3.291 2.563,-1.646 0.58,3.291 -2.563,1.648 0.582,3.291 -2.56,1.643 -0.582,-3.289 -2.56,1.644 -0.58,-3.291 2.56,-1.644 -0.58,-3.291 z"
     fill="#263238"
     id="path56" />
  <path
     d="m 121.58738,299.522 0.58,3.291 2.563,-1.645 0.581,3.291 -2.564,1.647 0.582,3.291 -2.559,1.644 -0.582,-3.29 -2.56,1.644 -0.58,-3.291 2.56,-1.643 -0.58,-3.291 z"
     fill="#4f64d9"
     id="path57" />
  <path
     d="m 101.44338,310.776 c 0.16,0.909 -0.283,2.014 -0.99,2.469 -0.707005,0.455 -1.410005,0.087 -1.570005,-0.822 -0.16,-0.909 0.283,-2.014 0.99,-2.469 0.707005,-0.455 1.410005,-0.087 1.570005,0.822 z"
     fill="#263238"
     id="path58" />
  <path
     d="m 102.60438,317.358 c 0.16,0.909 -0.283,2.014 -0.99,2.469 -0.707,0.455 -1.41,0.087 -1.57,-0.822 -0.160005,-0.909 0.283,-2.014 0.99,-2.469 0.707,-0.454 1.41,-0.087 1.57,0.822 z"
     fill="#263238"
     id="path59" />
  <path
     d="m 104.58538,312.422 c 0.16,0.909 -0.283,2.014 -0.99,2.469 -0.707,0.455 -1.41,0.087 -1.57,-0.822 -0.16,-0.909 0.283,-2.014 0.99,-2.469 0.707,-0.455 1.41,-0.087 1.57,0.822 z"
     fill="#263238"
     id="path60" />
  <path
     d="m 99.467375,315.713 c 0.16,0.909 -0.283,2.014 -0.99,2.469 -0.707,0.455 -1.41,0.087 -1.57,-0.822 -0.16,-0.909 0.283,-2.014 0.99,-2.469 0.707,-0.455 1.41,-0.087 1.57,0.822 z"
     fill="#263238"
     id="path61" />
  <path
     d="m 101.49638,310.81 c 0.16,0.909 -0.283,2.014 -0.99,2.469 -0.707005,0.455 -1.410005,0.087 -1.570005,-0.822 -0.16,-0.909 0.283,-2.014 0.99,-2.469 0.707005,-0.455 1.410005,-0.087 1.570005,0.822 z"
     fill="#263238"
     id="path62" />
  <path
     d="m 102.65738,317.392 c 0.16,0.909 -0.283,2.014 -0.99,2.469 -0.707,0.455 -1.41,0.087 -1.57,-0.822 -0.160005,-0.909 0.283,-2.014 0.99,-2.469 0.707,-0.455 1.41,-0.087 1.57,0.822 z"
     fill="#263238"
     id="path63" />
  <path
     d="m 104.63838,312.455 c 0.16,0.909 -0.283,2.014 -0.99,2.469 -0.707,0.455 -1.41,0.087 -1.57,-0.822 -0.16,-0.909 0.283,-2.014 0.99,-2.469 0.707,-0.455 1.41,-0.086 1.57,0.822 z"
     fill="#263238"
     id="path64" />
  <path
     d="m 99.520375,315.746 c 0.16,0.909 -0.283,2.014 -0.99,2.469 -0.707,0.455 -1.41,0.087 -1.57,-0.822 -0.16,-0.909 0.283,-2.014 0.99,-2.469 0.707,-0.454 1.41,-0.086 1.57,0.822 z"
     fill="#263238"
     id="path65" />
  <path
     d="m 101.54938,310.843 c 0.16,0.909 -0.283,2.014 -0.99,2.469 -0.707005,0.455 -1.410005,0.087 -1.570005,-0.822 -0.16,-0.909 0.283,-2.014 0.99,-2.469 0.707005,-0.454 1.410005,-0.086 1.570005,0.822 z"
     fill="#263238"
     id="path66" />
  <path
     d="m 102.71038,317.425 c 0.16,0.909 -0.283,2.014 -0.99,2.469 -0.707,0.455 -1.41,0.087 -1.57,-0.822 -0.160005,-0.909 0.283,-2.014 0.99,-2.469 0.707,-0.454 1.41,-0.086 1.57,0.822 z"
     fill="#263238"
     id="path67" />
  <path
     d="m 104.69138,312.489 c 0.16,0.909 -0.283,2.014 -0.99,2.469 -0.707,0.455 -1.41,0.087 -1.57,-0.822 -0.16,-0.909 0.283,-2.014 0.99,-2.469 0.707,-0.455 1.41,-0.087 1.57,0.822 z"
     fill="#263238"
     id="path68" />
  <path
     d="m 99.573375,315.78 c 0.16,0.909 -0.283,2.014 -0.99,2.469 -0.707,0.455 -1.41,0.087 -1.57,-0.822 -0.16,-0.909 0.283,-2.014 0.99,-2.469 0.707,-0.455 1.409,-0.087 1.57,0.822 z"
     fill="#263238"
     id="path69" />
  <path
     d="m 101.60238,310.877 c 0.16,0.909 -0.283,2.014 -0.99,2.469 -0.707005,0.455 -1.410005,0.087 -1.570005,-0.822 -0.16,-0.909 0.283,-2.014 0.990005,-2.469 0.707,-0.455 1.41,-0.087 1.57,0.822 z"
     fill="#263238"
     id="path70" />
  <path
     d="m 102.76338,317.459 c 0.16,0.909 -0.283,2.014 -0.99,2.469 -0.707,0.455 -1.41,0.087 -1.57,-0.822 -0.16,-0.909 0.283,-2.014 0.99,-2.469 0.707,-0.455 1.41,-0.087 1.57,0.822 z"
     fill="#263238"
     id="path71" />
  <path
     d="m 104.74438,312.523 c 0.16,0.909 -0.283,2.014 -0.99,2.469 -0.707,0.455 -1.41,0.087 -1.57,-0.822 -0.16,-0.909 0.283,-2.014 0.99,-2.469 0.707,-0.455 1.41,-0.087 1.57,0.822 z"
     fill="#263238"
     id="path72" />
  <path
     d="m 99.626375,315.814 c 0.16,0.909 -0.283,2.014 -0.99,2.469 -0.707,0.455 -1.41,0.087 -1.57,-0.822 -0.16,-0.909 0.283,-2.014 0.99,-2.469 0.707,-0.455 1.41,-0.087 1.57,0.822 z"
     fill="#263238"
     id="path73" />
  <path
     d="m 101.65538,310.911 c 0.16,0.909 -0.283,2.014 -0.99,2.469 -0.707005,0.455 -1.410005,0.087 -1.570005,-0.822 -0.16,-0.909 0.283,-2.014 0.990005,-2.469 0.707,-0.455 1.41,-0.087 1.57,0.822 z"
     fill="#263238"
     id="path74" />
  <path
     d="m 102.81638,317.493 c 0.16,0.909 -0.283,2.014 -0.99,2.469 -0.707,0.455 -1.41,0.087 -1.57,-0.822 -0.16,-0.909 0.283,-2.014 0.99,-2.469 0.707,-0.455 1.41,-0.087 1.57,0.822 z"
     fill="#263238"
     id="path75" />
  <path
     d="m 104.79738,312.556 c 0.16,0.909 -0.283,2.014 -0.99,2.469 -0.707,0.455 -1.41,0.087 -1.57,-0.822 -0.16,-0.909 0.283,-2.014 0.99,-2.469 0.707,-0.455 1.41,-0.087 1.57,0.822 z"
     fill="#263238"
     id="path76" />
  <path
     d="m 99.679375,315.847 c 0.16,0.909 -0.283,2.014 -0.99,2.469 -0.707,0.455 -1.41,0.087 -1.57,-0.822 -0.16,-0.909 0.283,-2.014 0.99,-2.469 0.707,-0.454 1.409,-0.086 1.57,0.822 z"
     fill="#263238"
     id="path77" />
  <path
     d="m 101.70838,310.944 c 0.16,0.909 -0.283,2.014 -0.99,2.469 -0.707,0.455 -1.410005,0.087 -1.570005,-0.822 -0.16,-0.909 0.283,-2.014 0.990005,-2.469 0.707,-0.454 1.41,-0.086 1.57,0.822 z"
     fill="#263238"
     id="path78" />
  <path
     d="m 102.86938,317.526 c 0.16,0.909 -0.283,2.014 -0.99,2.469 -0.707,0.455 -1.41,0.087 -1.57,-0.822 -0.16,-0.909 0.283,-2.014 0.99,-2.469 0.707,-0.454 1.41,-0.086 1.57,0.822 z"
     fill="#263238"
     id="path79" />
  <path
     d="m 104.85038,312.59 c 0.16,0.909 -0.283,2.014 -0.99,2.469 -0.707,0.455 -1.41,0.087 -1.57,-0.822 -0.16,-0.909 0.283,-2.014 0.99,-2.469 0.707,-0.455 1.41,-0.087 1.57,0.822 z"
     fill="#263238"
     id="path80" />
  <path
     d="m 99.732375,315.881 c 0.16,0.909 -0.283,2.014 -0.99,2.469 -0.707,0.455 -1.41,0.087 -1.57,-0.822 -0.16,-0.909 0.283,-2.014 0.99,-2.469 0.707,-0.455 1.409,-0.087 1.57,0.822 z"
     fill="#263238"
     id="path81" />
  <path
     d="m 101.76138,310.978 c 0.16,0.909 -0.283,2.014 -0.99,2.469 -0.707,0.455 -1.410005,0.087 -1.570005,-0.822 -0.16,-0.909 0.283,-2.014 0.990005,-2.469 0.707,-0.455 1.41,-0.087 1.57,0.822 z"
     fill="#263238"
     id="path82" />
  <path
     d="m 102.92238,317.56 c 0.16,0.909 -0.283,2.014 -0.99,2.469 -0.707,0.455 -1.41,0.087 -1.57,-0.822 -0.16,-0.909 0.283,-2.014 0.99,-2.469 0.707,-0.455 1.41,-0.087 1.57,0.822 z"
     fill="#263238"
     id="path83" />
  <path
     d="m 104.90338,312.623 c 0.16,0.909 -0.283,2.014 -0.99,2.469 -0.707,0.455 -1.41,0.087 -1.57,-0.822 -0.16,-0.909 0.283,-2.014 0.99,-2.469 0.707,-0.455 1.41,-0.086 1.57,0.822 z"
     fill="#263238"
     id="path84" />
  <path
     d="m 99.785375,315.914 c 0.16,0.909 -0.283,2.014 -0.99,2.469 -0.707,0.455 -1.41,0.087 -1.57,-0.822 -0.16,-0.909 0.283,-2.014 0.99,-2.469 0.706,-0.454 1.409,-0.086 1.57,0.822 z"
     fill="#263238"
     id="path85" />
  <path
     d="m 101.81438,311.012 c 0.16,0.909 -0.283,2.014 -0.99,2.469 -0.707,0.455 -1.410005,0.087 -1.570005,-0.822 -0.16,-0.909 0.283,-2.014 0.990005,-2.469 0.707,-0.455 1.41,-0.087 1.57,0.822 z"
     fill="#263238"
     id="path86" />
  <path
     d="m 102.97538,317.594 c 0.16,0.909 -0.283,2.014 -0.99,2.469 -0.707,0.455 -1.41,0.087 -1.57,-0.822 -0.16,-0.909 0.283,-2.014 0.99,-2.469 0.707,-0.455 1.409,-0.087 1.57,0.822 z"
     fill="#263238"
     id="path87" />
  <path
     d="m 104.95638,312.657 c 0.16,0.909 -0.283,2.014 -0.99,2.469 -0.707,0.455 -1.41,0.087 -1.57,-0.822 -0.16,-0.909 0.283,-2.014 0.99,-2.469 0.707,-0.455 1.41,-0.087 1.57,0.822 z"
     fill="#263238"
     id="path88" />
  <path
     d="m 99.837375,315.948 c 0.16,0.909 -0.283,2.014 -0.99,2.469 -0.707,0.455 -1.41,0.087 -1.57,-0.822 -0.16,-0.909 0.283,-2.014 0.99,-2.469 0.707,-0.455 1.41,-0.087 1.57,0.822 z"
     fill="#263238"
     id="path89" />
  <path
     d="m 101.86738,311.045 c 0.16,0.909 -0.283,2.014 -0.99,2.469 -0.707,0.455 -1.410005,0.087 -1.570005,-0.822 -0.16,-0.909 0.283,-2.014 0.990005,-2.469 0.707,-0.455 1.41,-0.087 1.57,0.822 z"
     fill="#263238"
     id="path90" />
  <path
     d="m 103.02838,317.627 c 0.16,0.909 -0.283,2.014 -0.99,2.469 -0.707,0.455 -1.41,0.087 -1.57,-0.822 -0.16,-0.909 0.283,-2.014 0.99,-2.469 0.707,-0.455 1.409,-0.087 1.57,0.822 z"
     fill="#263238"
     id="path91" />
  <path
     d="m 105.00938,312.691 c 0.16,0.909 -0.283,2.014 -0.99,2.469 -0.707,0.455 -1.41,0.087 -1.57,-0.822 -0.16,-0.909 0.283,-2.014 0.99,-2.469 0.707,-0.455 1.41,-0.087 1.57,0.822 z"
     fill="#263238"
     id="path92" />
  <path
     d="m 99.890375,315.982 c 0.160005,0.909 -0.283,2.014 -0.99,2.469 -0.707,0.455 -1.41,0.087 -1.57,-0.822 -0.16,-0.909 0.283,-2.014 0.99,-2.469 0.707,-0.455 1.41,-0.087 1.57,0.822 z"
     fill="#263238"
     id="path93" />
  <path
     d="m 101.92038,311.079 c 0.16,0.909 -0.283,2.014 -0.99,2.469 -0.707,0.455 -1.410005,0.087 -1.570005,-0.822 -0.16,-0.909 0.283,-2.014 0.990005,-2.469 0.707,-0.455 1.41,-0.087 1.57,0.822 z"
     fill="#263238"
     id="path94" />
  <path
     d="m 103.08138,317.661 c 0.16,0.909 -0.283,2.014 -0.99,2.469 -0.707,0.455 -1.41,0.087 -1.57,-0.822 -0.16,-0.909 0.283,-2.014 0.99,-2.469 0.707,-0.455 1.409,-0.087 1.57,0.822 z"
     fill="#263238"
     id="path95" />
  <path
     d="m 105.06238,312.724 c 0.16,0.909 -0.283,2.014 -0.99,2.469 -0.707,0.455 -1.41,0.087 -1.57,-0.822 -0.16,-0.909 0.283,-2.014 0.99,-2.469 0.707,-0.454 1.41,-0.086 1.57,0.822 z"
     fill="#263238"
     id="path96" />
  <path
     d="m 99.943375,316.015 c 0.160005,0.909 -0.283,2.014 -0.99,2.469 -0.707,0.455 -1.41,0.087 -1.57,-0.822 -0.16,-0.909 0.283,-2.014 0.99,-2.469 0.707,-0.454 1.41,-0.086 1.57,0.822 z"
     fill="#263238"
     id="path97" />
  <path
     d="m 101.97338,311.112 c 0.16,0.909 -0.283,2.014 -0.99,2.469 -0.707,0.455 -1.410005,0.087 -1.570005,-0.822 -0.16,-0.909 0.283,-2.014 0.990005,-2.469 0.707,-0.454 1.41,-0.086 1.57,0.822 z"
     fill="#263238"
     id="path98" />
  <path
     d="m 103.13438,317.694 c 0.16,0.909 -0.283,2.014 -0.99,2.469 -0.707,0.455 -1.41,0.087 -1.57,-0.822 -0.16,-0.909 0.283,-2.014 0.99,-2.469 0.707,-0.454 1.409,-0.086 1.57,0.822 z"
     fill="#263238"
     id="path99" />
  <path
     d="m 105.11538,312.758 c 0.16,0.909 -0.283,2.014 -0.99,2.469 -0.707,0.455 -1.41,0.087 -1.57,-0.822 -0.16,-0.909 0.283,-2.014 0.99,-2.469 0.707,-0.455 1.41,-0.087 1.57,0.822 z"
     fill="#263238"
     id="path100" />
  <path
     d="m 99.996375,316.049 c 0.160005,0.909 -0.283,2.014 -0.99,2.469 -0.707,0.455 -1.41,0.087 -1.57,-0.822 -0.16,-0.909 0.283,-2.014 0.99,-2.469 0.707,-0.455 1.41,-0.087 1.57,0.822 z"
     fill="#263238"
     id="path101" />
  <path
     d="m 102.02638,311.146 c 0.16,0.909 -0.283,2.014 -0.99,2.469 -0.707,0.455 -1.410005,0.087 -1.570005,-0.822 -0.16,-0.909 0.283,-2.014 0.990005,-2.469 0.707,-0.455 1.41,-0.087 1.57,0.822 z"
     fill="#263238"
     id="path102" />
  <path
     d="m 103.18738,317.728 c 0.16,0.909 -0.283,2.014 -0.99,2.469 -0.707,0.455 -1.41,0.087 -1.57,-0.822 -0.16,-0.909 0.283,-2.014 0.99,-2.469 0.707,-0.455 1.409,-0.087 1.57,0.822 z"
     fill="#263238"
     id="path103" />
  <path
     d="m 105.16838,312.792 c 0.16,0.909 -0.283,2.014 -0.99,2.469 -0.707,0.455 -1.41,0.087 -1.57,-0.822 -0.16,-0.909 0.283,-2.014 0.99,-2.469 0.707,-0.455 1.41,-0.087 1.57,0.822 z"
     fill="#263238"
     id="path104" />
  <path
     d="m 100.04938,316.082 c 0.16,0.909 -0.283005,2.014 -0.990005,2.469 -0.707,0.455 -1.41,0.087 -1.57,-0.822 -0.16,-0.909 0.283,-2.014 0.99,-2.469 0.707,-0.454 1.41,-0.086 1.570005,0.822 z"
     fill="#263238"
     id="path105" />
  <path
     d="m 120.84838,299.133 0.739,0.389 -2.559,1.648 -0.74,-0.39 z"
     fill="#263238"
     id="path106" />
  <path
     d="m 118.86838,304.071 0.74,0.39 -2.56,1.643 -0.74,-0.389 z"
     fill="#263238"
     id="path107" />
  <path
     d="m 122.16738,302.813 -0.137,-0.775 1.961,-1.26 0.739,0.39 z"
     fill="#263238"
     id="path108" />
  <path
     d="m 116.30838,305.715 0.74,0.389 0.58,3.291 -0.74,-0.389 z"
     fill="#263238"
     id="path109" />
  <path
     d="m 120.03038,310.651 0.74,0.39 -0.582,-3.29 -0.602,0.387 z"
     fill="#263238"
     id="path110" />
  <path
     d="m 102.02638,311.146 c 0.16,0.909 -0.283,2.014 -0.99,2.469 -0.707,0.455 -1.410005,0.087 -1.570005,-0.822 -0.16,-0.909 0.283,-2.014 0.990005,-2.469 0.707,-0.455 1.41,-0.087 1.57,0.822 z"
     fill="#4f64d9"
     id="path111" />
  <path
     d="m 103.18738,317.728 c 0.16,0.909 -0.283,2.014 -0.99,2.469 -0.707,0.455 -1.41,0.087 -1.57,-0.822 -0.16,-0.909 0.283,-2.014 0.99,-2.469 0.707,-0.455 1.409,-0.087 1.57,0.822 z"
     fill="#4f64d9"
     id="path112" />
  <path
     d="m 105.16838,312.792 c 0.16,0.909 -0.283,2.014 -0.99,2.469 -0.707,0.455 -1.41,0.087 -1.57,-0.822 -0.16,-0.909 0.283,-2.014 0.99,-2.469 0.707,-0.455 1.41,-0.087 1.57,0.822 z"
     fill="#4f64d9"
     id="path113" />
  <path
     d="m 100.04938,316.082 c 0.16,0.909 -0.283005,2.014 -0.990005,2.469 -0.707,0.455 -1.41,0.087 -1.57,-0.822 -0.16,-0.909 0.283,-2.014 0.99,-2.469 0.707,-0.454 1.41,-0.086 1.570005,0.822 z"
     fill="#4f64d9"
     id="path114" />
  <path
     d="m 126.62638,31.689 -10.747,6.205 c 0.053,-0.48 0.09,-0.956 0.09,-1.423 v -3.113 c 0,-5.54 -3.89,-7.786 -8.688,-5.016 -1.943,1.122 -3.731,2.9 -5.178,4.979 -0.786,-6.967 -6.252005,-9.562 -12.891005,-5.729 -7.178,4.144 -12.998,14.224 -12.998,22.513 v 4.658 c 0,2.147 0.397,3.955 1.1,5.396 l -8.927,5.154 c -2.662,1.537 -4.819,5.274 -4.819,8.347 0,3.073 2.158,4.319 4.819,2.782 L 126.62438,42.819 c 2.662,-1.537 4.819,-5.274 4.819,-8.347 0.002,-3.074 -2.156,-4.32 -4.817,-2.783 z"
     fill="#f0f0f0"
     id="path115" />
  <path
     d="m 349.97338,311.108 -1.957,-1.124 1.419,-0.64 c 0,0 1.116,0.294 1.142,0.346 0.026,0.052 -0.078,0.77 -0.078,0.77 z"
     fill="#e0e0e0"
     id="path116" />
  <path
     d="m 349.97338,311.108 -1.957,-1.124 1.419,-0.64 c 0,0 1.116,0.294 1.142,0.346 0.026,0.052 -0.078,0.77 -0.078,0.77 z"
     fill="#4f64d9"
     id="path117" />
  <path
     opacity="0.1"
     d="m 349.97338,311.108 -1.957,-1.124 1.419,-0.64 c 0,0 1.116,0.294 1.142,0.346 0.026,0.052 -0.078,0.77 -0.078,0.77 z"
     fill="#ffffff"
     id="path118" />
  <path
     d="m 275.56038,348.598 c 1.578,0.911 4.136,0.911 5.713,0 l 64.141,-37.034 -96.016,-55.441 -2.243,-1.298 -64.139,37.034 c -1.572,0.913 -1.572,2.397 0,3.299 z"
     fill="#4f64d9"
     id="path119" />
  <path
     opacity="0.8"
     d="m 275.56038,348.598 c 1.578,0.911 4.136,0.911 5.713,0 l 64.141,-37.034 -96.016,-55.441 -2.243,-1.298 -64.139,37.034 c -1.572,0.913 -1.572,2.397 0,3.299 z"
     fill="#ffffff"
     id="path120" />
  <path
     d="m 299.64438,278.64 22.367,12.874 14.48,-8.36 16.845,9.731 c 0,0 0,10.669 0,12.14 0,1.472 -1.651,3.568 -2.251,3.223 0,0 -1.319,0.27 -3.22,1.143 -1.901,0.874 -4.648,3.439 -4.648,3.439 l -51.396,-29.673 z"
     fill="#e0e0e0"
     id="path121" />
  <path
     d="m 299.64438,278.64 22.367,12.874 14.48,-8.36 16.845,9.731 c 0,0 0,10.669 0,12.14 0,1.472 -1.651,3.568 -2.251,3.223 0,0 -1.319,0.27 -3.22,1.143 -1.901,0.874 -4.648,3.439 -4.648,3.439 l -51.396,-29.673 z"
     fill="#4f64d9"
     id="path122" />
  <path
     opacity="0.1"
     d="m 299.64438,278.64 22.367,12.874 14.48,-8.36 16.845,9.731 c 0,0 0,10.669 0,12.14 0,1.472 -1.651,3.568 -2.251,3.223 0,0 -1.319,0.27 -3.22,1.143 -1.901,0.874 -4.648,3.439 -4.648,3.439 l -51.396,-29.673 z"
     fill="#ffffff"
     id="path123" />
  <path
     d="m 281.27538,348.595 3.871,-2.243 58.069,-33.526 c 0.022,-0.726 0.319,-1.44 0.792,-2.078 0.66,-0.924 1.649,-1.715 2.54,-2.232 0.682,-0.396 1.704,-0.858 2.738,-0.858 0.704,0 1.319,0.22 1.803,0.594 0.374,-0.506 1.067,-2.452 1.067,-4.805 h 2.199 c 0,3.035 -1.001,6.081 -2.232,6.785 l -1.111,0.649 c -0.627,0.363 -1.122,0.385 -1.122,0.044 v -0.594 c 0,-0.66 -1.001,-0.627 -2.243,0.088 -1.232,0.715 -2.232,1.825 -2.232,2.485 v 0.594 c 0,0.341 -0.858,1.099 -1.902,1.704 l -56.156,32.427 -6.081,3.508 c 0,0 -0.011,0 -0.011,0.011 -0.792,0.44 -1.814,0.671 -2.848,0.671 v -2.54 c 1.034,-0.003 2.068,-0.222 2.859,-0.684 z"
     fill="#4f64d9"
     id="path124" />
  <path
     opacity="0.6"
     d="m 281.27538,348.595 3.871,-2.243 58.069,-33.526 c 0.022,-0.726 0.319,-1.44 0.792,-2.078 0.66,-0.924 1.649,-1.715 2.54,-2.232 0.682,-0.396 1.704,-0.858 2.738,-0.858 0.704,0 1.319,0.22 1.803,0.594 0.374,-0.506 1.067,-2.452 1.067,-4.805 h 2.199 c 0,3.035 -1.001,6.081 -2.232,6.785 l -1.111,0.649 c -0.627,0.363 -1.122,0.385 -1.122,0.044 v -0.594 c 0,-0.66 -1.001,-0.627 -2.243,0.088 -1.232,0.715 -2.232,1.825 -2.232,2.485 v 0.594 c 0,0.341 -0.858,1.099 -1.902,1.704 l -56.156,32.427 -6.081,3.508 c 0,0 -0.011,0 -0.011,0.011 -0.792,0.44 -1.814,0.671 -2.848,0.671 v -2.54 c 1.034,-0.003 2.068,-0.222 2.859,-0.684 z"
     fill="#ffffff"
     id="path125" />
  <path
     d="m 181.84038,293.472 v 2.584 c 0,0.594 0.374,1.177 1.133,1.627 l 0.044,0.022 86.471,49.921 6.07,3.508 v 0.011 c 0,0 0.011,-0.011 0.011,0 0.792,0.44 1.814,0.671 2.848,0.671 v -2.54 c -1.034,0 -2.067,-0.22 -2.859,-0.682 l -3.86,-2.232 h -0.011 l -88.671,-51.208 c -0.84,-0.487 -1.173,-1.058 -1.176,-1.682 z"
     fill="#4f64d9"
     id="path126" />
  <path
     opacity="0.1"
     d="m 181.84038,293.472 v 2.584 c 0,0.594 0.374,1.177 1.133,1.627 l 0.044,0.022 86.471,49.921 6.07,3.508 v 0.011 c 0,0 0.011,-0.011 0.011,0 0.792,0.44 1.814,0.671 2.848,0.671 v -2.54 c -1.034,0 -2.067,-0.22 -2.859,-0.682 l -3.86,-2.232 h -0.011 l -88.671,-51.208 c -0.84,-0.487 -1.173,-1.058 -1.176,-1.682 z"
     fill="#ffffff"
     id="path127" />
  <path
     d="m 278.41738,332.156 v 14.822 c 0.693,0 1.385,-0.143 1.902,-0.451 l 7.037,-4.057 53.594,-30.942 0.011,-15.482 z"
     fill="#ffffff"
     id="path128" />
  <path
     d="m 184.62238,279.859 v 11.414 c 0,1.21 0.858,2.694 1.902,3.299 l 82.964,47.898 7.026,4.057 c 0.517,0.308 1.21,0.451 1.902,0.451 v -13.25 z"
     fill="#f0f0f0"
     id="path129" />
  <path
     d="m 340.95038,311.528 c 0.022,-0.726 0.33,-1.439 0.803,-2.077 0.66,-0.924 1.649,-1.715 2.54,-2.232 0.682,-0.396 1.704,-0.858 2.738,-0.858 0.704,0 1.32,0.22 1.803,0.594 V 291.5 l -7.873,4.545 z"
     fill="#455a64"
     id="path130" />
  <path
     d="m 344.09538,307.345 c -0.837,0.516 -1.73,1.249 -2.342,2.105 -0.473,0.638 -0.781,1.352 -0.803,2.077 l 0.01,-14.757 h 3.134 v 10.575 z"
     fill="#f5f5f5"
     id="path131" />
  <path
     d="m 249.39838,238.031 96.016,55.441 c 0,0 0,0.572 0,1.286 0,0.715 1.001,0.979 2.232,0.264 1.242,-0.715 2.243,-1.605 2.243,-2.837 l 0.121,-1.221 -97.83,-56.475 -0.396,-0.231 c -0.099,0.187 -0.165,0.396 -0.165,0.594 v 0.594 c 0.001,0.716 -0.989,1.859 -2.221,2.585 z"
     fill="#4f64d9"
     id="path132" />
  <path
     opacity="0.6"
     d="m 249.39838,238.031 96.016,55.441 c 0,0 0,0.572 0,1.286 0,0.715 1.001,0.979 2.232,0.264 1.242,-0.715 2.243,-1.605 2.243,-2.837 l 0.121,-1.221 -97.83,-56.475 -0.396,-0.231 c -0.099,0.187 -0.165,0.396 -0.165,0.594 v 0.594 c 0.001,0.716 -0.989,1.859 -2.221,2.585 z"
     fill="#ffffff"
     id="path133" />
  <path
     d="m 281.27338,330.507 62.719,-36.213 c 0.797,-0.418 1.525,-0.753 1.832,-0.592 l -0.41,-0.229 -96.016,-55.441 c 0,0 -0.564,-0.323 -1.122,-0.647 -0.619,-0.359 -1.973,-0.158 -3.025,0.449 l -62.234,35.934 c -1.572,0.913 -1.572,2.397 0,3.299 l 92.544,53.44 c 1.577,0.91 4.135,0.911 5.712,0 z"
     fill="#4f64d9"
     id="path134" />
  <path
     opacity="0.8"
     d="m 281.27338,330.507 62.719,-36.213 c 0.797,-0.418 1.525,-0.753 1.832,-0.592 l -0.41,-0.229 -96.016,-55.441 c 0,0 -0.564,-0.323 -1.122,-0.647 -0.619,-0.359 -1.973,-0.158 -3.025,0.449 l -62.234,35.934 c -1.572,0.913 -1.572,2.397 0,3.299 l 92.544,53.44 c 1.577,0.91 4.135,0.911 5.712,0 z"
     fill="#ffffff"
     id="path135" />
  <path
     d="m 251.78538,234.259 0.396,0.231 97.83,56.475 c 0,0 0.066,-0.154 0.209,-0.264 0.088,-0.055 0.198,-0.11 0.33,-0.187 l 0.704,-0.407 c 0.264,-0.154 0.561,-0.33 0.869,-0.506 0.407,-0.231 0.781,-0.187 1.111,0.099 0.044,0.022 0.077,0.055 0.11,0.099 0.11,0.11 0.209,0.253 0.297,0.407 0.099,0.165 0.187,0.352 0.253,0.55 0.077,0.198 0.143,0.418 0.198,0.638 0.055,0.242 0.099,0.484 0.143,0.748 0.033,0.143 0.044,0.297 0.055,0.451 0.011,0.121 0.022,0.231 0.033,0.363 0.022,0.275 0.033,0.561 0.033,0.858 v -2.749 c 0,-1.517 -1.287,-3.486 -2.859,-4.398 l -92.552,-53.44 c -1.583,-0.913 -3.86,-1.066 -5.091,-0.363 l -1.166,0.682 -0.044,0.022 c -0.077,0.055 -0.275,0.165 -0.495,0.286 0,0 -0.011,0 -0.011,0.011 -0.134,0.076 -0.265,0.219 -0.353,0.394 z"
     fill="#4f64d9"
     id="path136" />
  <path
     opacity="0.8"
     d="m 251.78538,234.259 0.396,0.231 97.83,56.475 c 0,0 0.066,-0.154 0.209,-0.264 0.088,-0.055 0.198,-0.11 0.33,-0.187 l 0.704,-0.407 c 0.264,-0.154 0.561,-0.33 0.869,-0.506 0.407,-0.231 0.781,-0.187 1.111,0.099 0.044,0.022 0.077,0.055 0.11,0.099 0.11,0.11 0.209,0.253 0.297,0.407 0.099,0.165 0.187,0.352 0.253,0.55 0.077,0.198 0.143,0.418 0.198,0.638 0.055,0.242 0.099,0.484 0.143,0.748 0.033,0.143 0.044,0.297 0.055,0.451 0.011,0.121 0.022,0.231 0.033,0.363 0.022,0.275 0.033,0.561 0.033,0.858 v -2.749 c 0,-1.517 -1.287,-3.486 -2.859,-4.398 l -92.552,-53.44 c -1.583,-0.913 -3.86,-1.066 -5.091,-0.363 l -1.166,0.682 -0.044,0.022 c -0.077,0.055 -0.275,0.165 -0.495,0.286 0,0 -0.011,0 -0.011,0.011 -0.134,0.076 -0.265,0.219 -0.353,0.394 z"
     fill="#ffffff"
     id="path137" />
  <path
     d="m 281.25338,330.517 c 0.011,0 0.011,-0.011 0.011,-0.011 l 3.882,-2.243 44.61,-25.741 14.24,-8.225 c 1.012,-0.594 1.836,-0.803 1.891,-0.495 0.011,0.011 0.011,0.022 0.011,0.033 v 0.649 c 0,0.715 1.001,0.715 2.232,0 1.21,-0.693 1.737,-1.55 1.759,-2.243 v -0.704 c 0,-0.363 0.143,-0.737 0.33,-0.836 0.088,-0.055 0.209,-0.121 0.33,-0.187 0.198,-0.11 0.44,-0.253 0.704,-0.407 0.264,-0.154 0.561,-0.33 0.869,-0.506 0.407,-0.231 0.781,-0.187 1.111,0.099 0.044,0.022 0.077,0.055 0.11,0.099 0.077,0.077 0.143,0.165 0.198,0.264 0.044,0.044 0.066,0.088 0.099,0.143 0.099,0.165 0.187,0.352 0.253,0.55 0.077,0.198 0.143,0.418 0.198,0.638 0.055,0.242 0.099,0.484 0.143,0.748 0.033,0.143 0.044,0.297 0.055,0.451 0.011,0.121 0.022,0.231 0.033,0.363 0.022,0.275 0.033,0.561 0.033,0.858 v 9.632 h -2.199 v -9.632 c 0,-0.231 -0.011,-0.462 -0.022,-0.682 l -0.055,-0.55 c 0,-0.022 0,-0.033 -0.011,-0.055 -0.198,1.748 -1.869,3.31 -3.321,4.134 -0.649,0.385 -1.649,0.836 -2.683,0.836 -0.77,0 -1.462,-0.275 -1.968,-0.726 l -0.198,0.11 c -0.132,0.077 -0.253,0.154 -0.385,0.231 l -56.156,32.427 -6.081,3.508 c 0,0 -0.011,0 -0.011,0.011 -0.011,0.011 -0.022,0.011 -0.044,0.022 -0.781,0.429 -1.792,0.649 -2.804,0.649 v -2.538 c 1.135,-10e-4 2.038,-0.253 2.836,-0.674 z"
     fill="#4f64d9"
     id="path138" />
  <path
     opacity="0.6"
     d="m 281.25338,330.517 c 0.011,0 0.011,-0.011 0.011,-0.011 l 3.882,-2.243 44.61,-25.741 14.24,-8.225 c 1.012,-0.594 1.836,-0.803 1.891,-0.495 0.011,0.011 0.011,0.022 0.011,0.033 v 0.649 c 0,0.715 1.001,0.715 2.232,0 1.21,-0.693 1.737,-1.55 1.759,-2.243 v -0.704 c 0,-0.363 0.143,-0.737 0.33,-0.836 0.088,-0.055 0.209,-0.121 0.33,-0.187 0.198,-0.11 0.44,-0.253 0.704,-0.407 0.264,-0.154 0.561,-0.33 0.869,-0.506 0.407,-0.231 0.781,-0.187 1.111,0.099 0.044,0.022 0.077,0.055 0.11,0.099 0.077,0.077 0.143,0.165 0.198,0.264 0.044,0.044 0.066,0.088 0.099,0.143 0.099,0.165 0.187,0.352 0.253,0.55 0.077,0.198 0.143,0.418 0.198,0.638 0.055,0.242 0.099,0.484 0.143,0.748 0.033,0.143 0.044,0.297 0.055,0.451 0.011,0.121 0.022,0.231 0.033,0.363 0.022,0.275 0.033,0.561 0.033,0.858 v 9.632 h -2.199 v -9.632 c 0,-0.231 -0.011,-0.462 -0.022,-0.682 l -0.055,-0.55 c 0,-0.022 0,-0.033 -0.011,-0.055 -0.198,1.748 -1.869,3.31 -3.321,4.134 -0.649,0.385 -1.649,0.836 -2.683,0.836 -0.77,0 -1.462,-0.275 -1.968,-0.726 l -0.198,0.11 c -0.132,0.077 -0.253,0.154 -0.385,0.231 l -56.156,32.427 -6.081,3.508 c 0,0 -0.011,0 -0.011,0.011 -0.011,0.011 -0.022,0.011 -0.044,0.022 -0.781,0.429 -1.792,0.649 -2.804,0.649 v -2.538 c 1.135,-10e-4 2.038,-0.253 2.836,-0.674 z"
     fill="#ffffff"
     id="path139" />
  <path
     d="m 181.84038,275.386 v 2.584 c 0,0.594 0.374,1.177 1.133,1.627 l 0.044,0.022 86.471,49.921 6.07,3.508 v 0.011 c 0,0 0.011,-0.011 0.011,0 0.792,0.44 1.814,0.671 2.848,0.671 v -2.54 c -1.034,0 -2.067,-0.22 -2.859,-0.682 l -3.86,-2.232 h -0.011 l -88.671,-51.208 c -0.84,-0.488 -1.173,-1.058 -1.176,-1.682 z"
     fill="#4f64d9"
     id="path140" />
  <path
     opacity="0.1"
     d="m 181.84038,275.386 v 2.584 c 0,0.594 0.374,1.177 1.133,1.627 l 0.044,0.022 86.471,49.921 6.07,3.508 v 0.011 c 0,0 0.011,-0.011 0.011,0 0.792,0.44 1.814,0.671 2.848,0.671 v -2.54 c -1.034,0 -2.067,-0.22 -2.859,-0.682 l -3.86,-2.232 h -0.011 l -88.671,-51.208 c -0.84,-0.488 -1.173,-1.058 -1.176,-1.682 z"
     fill="#ffffff"
     id="path141" />
  <path
     d="m 245.25138,237.833 c 1.052,-0.607 2.406,-0.808 3.025,-0.449 0.558,0.324 1.117,0.647 1.117,0.647 1.237,-0.726 2.227,-1.869 2.227,-2.584 v -0.594 c 0,-0.198 0.066,-0.407 0.165,-0.594 0.088,-0.176 0.22,-0.319 0.352,-0.396 0,-0.011 0.011,-0.011 0.011,-0.011 0.22,-0.121 0.418,-0.231 0.495,-0.286 l 0.044,-0.022 1.166,-0.682 c 1.231,-0.704 3.508,-0.55 5.091,0.363 l 92.552,53.44 c 0.033,0.019 0.064,0.045 0.097,0.066 l -65.389,37.752 c -1.052,0.607 -2.755,0.604 -3.805,-0.008 l -93.157,-54.302 z"
     fill="#263238"
     id="path142" />
  <path
     d="m 291.43938,319.033 -2.478,-1.424 c 0,0 1.422,-0.452 2.078,-0.146 0.657,0.307 0.4,1.57 0.4,1.57 z"
     fill="#4f64d9"
     id="path143" />
  <path
     opacity="0.7"
     d="m 291.43938,319.033 -2.478,-1.424 c 0,0 1.422,-0.452 2.078,-0.146 0.657,0.307 0.4,1.57 0.4,1.57 z"
     fill="#000000"
     id="path144" />
  <path
     d="m 293.14038,317.474 c 0,0 -2.006,-2.21 -4.413,0 -2.407,2.21 -2.532,4.4 -3.528,4.364 -0.997,-0.036 -0.982,-17.65 -0.982,-17.65 l 9.489,8.825 z"
     fill="#4f64d9"
     id="path145" />
  <path
     opacity="0.7"
     d="m 293.14038,317.474 c 0,0 -2.006,-2.21 -4.413,0 -2.407,2.21 -2.532,4.4 -3.528,4.364 -0.997,-0.036 -0.982,-17.65 -0.982,-17.65 l 9.489,8.825 z"
     fill="#000000"
     id="path146" />
  <path
     d="m 193.71138,253.417 -0.156,-0.09 1.525,-0.881 65.474,-37.801 95.408,61.746 c 1.578,0.911 1.857,2.224 0.624,2.933 l -2.232,1.283 -61.203,35.351 -0.434,-0.316 z"
     fill="#4f64d9"
     id="path147" />
  <path
     opacity="0.5"
     d="m 193.71138,253.417 -0.156,-0.09 1.525,-0.881 65.474,-37.801 95.408,61.746 c 1.578,0.911 1.857,2.224 0.624,2.933 l -2.232,1.283 -61.203,35.351 -0.434,-0.316 z"
     fill="#000000"
     id="path148" />
  <path
     d="m 284.98438,295.849 4.739,-0.977 v 18.98 c -2.859,1.213 -4.677,2.361 -4.977,4.753 z"
     fill="#455a64"
     id="path149" />
  <path
     d="m 291.82038,314.103 60.629,-35.005 c 1.052,-0.607 1.905,-2.084 1.905,-3.299 v -18.71 l -61.215,35.651 c 0,0 -0.73,2.647 -2.901,3.483 -2.171,0.835 -0.516,1.675 -0.516,1.675 v 15.955 c 1.876,-0.222 2.098,0.25 2.098,0.25 z"
     fill="#f0f0f0"
     id="path150" />
  <path
     d="m 286.23038,295.2 c 0.627,-0.363 1.121,-0.385 1.121,-0.044 v 0.594 c 0,0.66 1.001,0.627 2.243,-0.088 1.231,-0.715 2.246,-1.824 2.246,-2.483 v -0.596 c 0,-0.341 0.844,-1.099 1.888,-1.704 l -98.646,-56.521 c -0.604,0.35 -1.527,0.887 -1.527,0.887 -0.255,0.25 -0.375,0.673 -0.375,0.817 v 0.594 c 0,0.66 -1.001,1.77 -2.232,2.485 -1.243,0.715 -2.243,0.748 -2.243,0.088 v -0.594 c 0,-0.341 -0.495,-0.319 -1.121,0.044 z"
     fill="#4f64d9"
     id="path151" />
  <path
     opacity="0.6"
     d="m 286.23038,295.2 c 0.627,-0.363 1.121,-0.385 1.121,-0.044 v 0.594 c 0,0.66 1.001,0.627 2.243,-0.088 1.231,-0.715 2.246,-1.824 2.246,-2.483 v -0.596 c 0,-0.341 0.844,-1.099 1.888,-1.704 l -98.646,-56.521 c -0.604,0.35 -1.527,0.887 -1.527,0.887 -0.255,0.25 -0.375,0.673 -0.375,0.817 v 0.594 c 0,0.66 -1.001,1.77 -2.232,2.485 -1.243,0.715 -2.243,0.748 -2.243,0.088 v -0.594 c 0,-0.341 -0.495,-0.319 -1.121,0.044 z"
     fill="#000000"
     id="path152" />
  <path
     d="m 193.71138,235.335 -0.156,-0.09 1.525,-0.881 65.474,-37.801 95.408,55.094 c 1.578,0.911 1.857,2.224 0.624,2.933 l -2.232,1.283 -61.215,36.866 z"
     fill="#4f64d9"
     id="path153" />
  <path
     opacity="0.5"
     d="m 193.71138,235.335 -0.156,-0.09 1.525,-0.881 65.474,-37.801 95.408,55.094 c 1.578,0.911 1.857,2.224 0.624,2.933 l -2.232,1.283 -61.215,36.866 z"
     fill="#000000"
     id="path154" />
  <path
     d="m 188.68638,238.056 98.568,56.908 -3.451,2.699 -98.249,-56.724 c 0.426,-1.01 0.867,-1.542 1.315,-1.834 z"
     fill="#4f64d9"
     id="path155" />
  <path
     opacity="0.5"
     d="m 188.68638,238.056 98.568,56.908 -3.451,2.699 -98.249,-56.724 c 0.426,-1.01 0.867,-1.542 1.315,-1.834 z"
     fill="#000000"
     id="path156" />
  <path
     d="m 185.93938,266.426 c -0.061,-0.035 -0.12,-0.078 -0.178,-0.128 -0.044,-0.022 -0.077,-0.055 -0.11,-0.099 -0.077,-0.077 -0.143,-0.165 -0.198,-0.264 -0.044,-0.044 -0.066,-0.088 -0.099,-0.143 -0.099,-0.165 -0.187,-0.352 -0.253,-0.55 -0.077,-0.198 -0.143,-0.418 -0.198,-0.638 -0.055,-0.242 -0.099,-0.484 -0.143,-0.748 -0.033,-0.143 -0.044,-0.297 -0.055,-0.451 -0.011,-0.121 -0.022,-0.231 -0.033,-0.363 -0.022,-0.275 -0.033,-0.561 -0.033,-0.858 V 245.9 c 0,-1.82 0.36,-3.643 0.913,-4.964 l 98.249,56.727 0.415,25.512 -98.245,-56.732 z"
     fill="#4f64d9"
     id="path157" />
  <path
     opacity="0.7"
     d="m 185.93938,266.426 c -0.061,-0.035 -0.12,-0.078 -0.178,-0.128 -0.044,-0.022 -0.077,-0.055 -0.11,-0.099 -0.077,-0.077 -0.143,-0.165 -0.198,-0.264 -0.044,-0.044 -0.066,-0.088 -0.099,-0.143 -0.099,-0.165 -0.187,-0.352 -0.253,-0.55 -0.077,-0.198 -0.143,-0.418 -0.198,-0.638 -0.055,-0.242 -0.099,-0.484 -0.143,-0.748 -0.033,-0.143 -0.044,-0.297 -0.055,-0.451 -0.011,-0.121 -0.022,-0.231 -0.033,-0.363 -0.022,-0.275 -0.033,-0.561 -0.033,-0.858 V 245.9 c 0,-1.82 0.36,-3.643 0.913,-4.964 l 98.249,56.727 0.415,25.512 -98.245,-56.732 z"
     fill="#000000"
     id="path158" />
  <path
     opacity="0.79"
     d="m 283.80238,297.664 c 0,0 -77.375,-36.215 -84.418,-39.533 -4.646,-2.189 -6.93,2.409 -5.83,7.171 0.961,4.16 5.068,8.447 5.068,8.447 l -12.651,-7.305 -0.033,-0.018 c -0.061,-0.035 -0.12,-0.078 -0.178,-0.128 -0.044,-0.022 -0.077,-0.055 -0.11,-0.099 -0.077,-0.077 -0.143,-0.165 -0.198,-0.264 -0.044,-0.044 -0.066,-0.088 -0.099,-0.143 -0.099,-0.165 -0.187,-0.352 -0.253,-0.55 -0.077,-0.198 -0.143,-0.418 -0.198,-0.638 -0.055,-0.242 -0.099,-0.484 -0.143,-0.748 -0.033,-0.143 -0.044,-0.297 -0.055,-0.451 -0.011,-0.121 -0.022,-0.231 -0.033,-0.363 -0.022,-0.275 -0.033,-0.561 -0.033,-0.858 V 245.9 c 0,-1.82 0.36,-3.643 0.913,-4.964 z"
     fill="#263238"
     id="path159" />
  <path
     d="m 282.89238,302.633 h 2.199 c 0,-2.353 0.693,-4.299 1.067,-4.805 0.484,0.374 1.1,0.594 1.803,0.594 1.034,0 2.056,-0.462 2.738,-0.858 0.891,-0.517 1.88,-1.308 2.54,-2.232 0.044,-0.066 0.099,-0.132 0.132,-0.198 0.396,-0.583 0.638,-1.232 0.66,-1.88 l 58.069,-33.526 1.968,-1.144 2.518,-1.452 c 0.517,-0.297 0.77,-0.704 0.77,-1.133 v -2.573 c 0,0.506 -0.297,0.88 -0.77,1.165 l -0.033,0.022 -6.664,3.838 -56.156,32.427 c -1.045,0.605 -1.902,1.364 -1.902,1.704 v 0.594 c 0,0.286 -0.187,0.66 -0.517,1.045 -0.396,0.506 -1.023,1.034 -1.715,1.441 -1.243,0.715 -2.243,0.748 -2.243,0.088 v -0.594 c 0,-0.341 -0.495,-0.319 -1.122,0.044 l -1.111,0.649 c -1.23,0.703 -2.231,3.749 -2.231,6.784 z"
     fill="#4f64d9"
     id="path160" />
  <path
     d="m 285.09138,302.633 v 16.284 c 0,0.231 0.011,0.462 0.022,0.682 l 0.055,0.55 c 0,0.022 0,0.033 0.011,0.055 0.198,-1.748 1.869,-3.31 3.321,-4.134 0.649,-0.385 1.649,-0.836 2.683,-0.836 0.77,0 1.462,0.275 1.968,0.726 l 0.198,-0.11 c 0.132,-0.077 0.253,-0.154 0.385,-0.231 l 56.156,-32.427 c 0,0 1.473,-0.847 3.222,-1.858 0.297,-0.176 0.616,-0.352 0.924,-0.539 0.946,-0.55 1.902,-1.1 2.716,-1.572 0.374,-0.275 0.605,-0.616 0.605,-1.056 v 0.704 1.869 c 0,0.363 -0.187,0.715 -0.561,0.99 0,0.011 -0.011,0.011 -0.022,0.022 -0.319,0.187 -0.66,0.374 -1.001,0.583 -0.209,0.121 -0.418,0.242 -0.627,0.363 -0.374,0.209 -0.737,0.429 -1.078,0.627 -0.242,0.143 -0.462,0.275 -0.671,0.385 -0.176,0.099 -0.33,0.198 -0.473,0.275 -0.506,0.297 -0.825,0.484 -0.825,0.484 l -44.61,25.741 -14.24,8.225 c -1.012,0.594 -1.836,0.803 -1.891,0.495 -0.009,-0.043 -0.011,-0.094 -0.011,-0.105 v -0.576 c 0,-0.715 -1.001,-0.715 -2.232,0 -1.21,0.693 -1.738,1.55 -1.759,2.243 v 0.704 c 0,0.363 -0.143,0.737 -0.33,0.836 -0.088,0.055 -0.209,0.121 -0.33,0.187 -0.198,0.11 -0.44,0.253 -0.704,0.407 -0.264,0.154 -0.561,0.33 -0.869,0.506 -0.407,0.231 -0.781,0.187 -1.111,-0.099 -0.044,-0.022 -0.077,-0.055 -0.11,-0.099 -0.077,-0.077 -0.143,-0.165 -0.198,-0.264 v -0.011 c -0.044,-0.044 -0.066,-0.077 -0.099,-0.132 -0.099,-0.165 -0.187,-0.352 -0.253,-0.55 -0.077,-0.198 -0.143,-0.418 -0.198,-0.638 -0.055,-0.242 -0.099,-0.484 -0.143,-0.748 -0.033,-0.143 -0.044,-0.297 -0.055,-0.451 -0.011,-0.121 -0.022,-0.231 -0.033,-0.363 -0.022,-0.275 -0.033,-0.561 -0.033,-0.858 v -16.284 h 2.201 z"
     fill="#4f64d9"
     id="path161" />
  <g
     opacity="0.6"
     id="g163"
     transform="translate(-114.69362,-217)">
    <path
       d="m 397.586,519.633 h 2.199 c 0,-2.353 0.693,-4.299 1.067,-4.805 0.484,0.374 1.1,0.594 1.803,0.594 1.034,0 2.056,-0.462 2.738,-0.858 0.891,-0.517 1.88,-1.308 2.54,-2.232 0.044,-0.066 0.099,-0.132 0.132,-0.198 0.396,-0.583 0.638,-1.232 0.66,-1.88 l 58.069,-33.526 1.968,-1.144 2.518,-1.452 c 0.517,-0.297 0.77,-0.704 0.77,-1.133 v -2.573 c 0,0.506 -0.297,0.88 -0.77,1.165 l -0.033,0.022 -6.664,3.838 -56.156,32.427 c -1.045,0.605 -1.902,1.364 -1.902,1.704 v 0.594 c 0,0.286 -0.187,0.66 -0.517,1.045 -0.396,0.506 -1.023,1.034 -1.715,1.441 -1.243,0.715 -2.243,0.748 -2.243,0.088 v -0.594 c 0,-0.341 -0.495,-0.319 -1.122,0.044 l -1.111,0.649 c -1.23,0.703 -2.231,3.749 -2.231,6.784 z"
       fill="#000000"
       id="path162" />
    <path
       d="m 399.785,519.633 v 16.284 c 0,0.231 0.011,0.462 0.022,0.682 l 0.055,0.55 c 0,0.022 0,0.033 0.011,0.055 0.198,-1.748 1.869,-3.31 3.321,-4.134 0.649,-0.385 1.649,-0.836 2.683,-0.836 0.77,0 1.462,0.275 1.968,0.726 l 0.198,-0.11 c 0.132,-0.077 0.253,-0.154 0.385,-0.231 l 56.156,-32.427 c 0,0 1.473,-0.847 3.222,-1.858 0.297,-0.176 0.616,-0.352 0.924,-0.539 0.946,-0.55 1.902,-1.1 2.716,-1.572 0.374,-0.275 0.605,-0.616 0.605,-1.056 v 0.704 1.869 c 0,0.363 -0.187,0.715 -0.561,0.99 0,0.011 -0.011,0.011 -0.022,0.022 -0.319,0.187 -0.66,0.374 -1.001,0.583 -0.209,0.121 -0.418,0.242 -0.627,0.363 -0.374,0.209 -0.737,0.429 -1.078,0.627 -0.242,0.143 -0.462,0.275 -0.671,0.385 -0.176,0.099 -0.33,0.198 -0.473,0.275 -0.506,0.297 -0.825,0.484 -0.825,0.484 l -44.61,25.741 -14.24,8.225 c -1.012,0.594 -1.836,0.803 -1.891,0.495 -0.009,-0.043 -0.011,-0.094 -0.011,-0.105 v -0.576 c 0,-0.715 -1.001,-0.715 -2.232,0 -1.21,0.693 -1.738,1.55 -1.759,2.243 v 0.704 c 0,0.363 -0.143,0.737 -0.33,0.836 -0.088,0.055 -0.209,0.121 -0.33,0.187 -0.198,0.11 -0.44,0.253 -0.704,0.407 -0.264,0.154 -0.561,0.33 -0.869,0.506 -0.407,0.231 -0.781,0.187 -1.111,-0.099 -0.044,-0.022 -0.077,-0.055 -0.11,-0.099 -0.077,-0.077 -0.143,-0.165 -0.198,-0.264 v -0.011 c -0.044,-0.044 -0.066,-0.077 -0.099,-0.132 -0.099,-0.165 -0.187,-0.352 -0.253,-0.55 -0.077,-0.198 -0.143,-0.418 -0.198,-0.638 -0.055,-0.242 -0.099,-0.484 -0.143,-0.748 -0.033,-0.143 -0.044,-0.297 -0.055,-0.451 -0.011,-0.121 -0.022,-0.231 -0.033,-0.363 -0.022,-0.275 -0.033,-0.561 -0.033,-0.858 v -16.284 h 2.201 z"
       fill="#000000"
       id="path163" />
  </g>
  <path
     d="m 185.55638,240.934 93.377,53.913 70.583,-40.751 c 1.056,-0.605 1.056,-1.594 0,-2.199 l -92.398,-53.352 -62.028,35.814 h -0.011 c -0.605,0.352 -1.529,0.891 -1.529,0.891 -0.253,0.242 -0.374,0.671 -0.374,0.814 v 0.594 c 0,0.66 -1.001,1.77 -2.232,2.485 -0.066,0.044 -0.132,0.066 -0.198,0.099 l -2.056,-1.188 -0.979,0.561 c -0.044,0.022 -0.077,0.033 -0.132,0.066 l 0.011,0.011 -0.726,0.418 c -0.439,0.285 -0.89,0.823 -1.308,1.824 z"
     fill="#263238"
     id="path164" />
  <path
     d="m 344.26138,254.504 -2.81,-1.5 2.559,-0.612 c 0.521,0.593 0.554,1.31 0.251,2.112 z"
     fill="#e0e0e0"
     id="path165" />
  <path
     opacity="0.5"
     d="m 344.26138,254.504 -2.81,-1.5 2.559,-0.612 c 0.521,0.593 0.554,1.31 0.251,2.112 z"
     fill="#e0e0e0"
     id="path166" />
  <path
     d="m 269.83438,291.986 c 1.578,0.911 4.136,0.911 5.714,0 l 64.141,-37.034 -96.016,-60.696 -2.243,-1.298 -64.139,42.289 c -1.572,0.913 -1.572,2.397 0,3.299 z"
     fill="#4f64d9"
     id="path167" />
  <path
     d="m 293.91838,216.773 48.457,32.841 -26.09,-19.967 14.48,-8.36 16.844,9.731 c 0,0 0,15.923 0,17.395 0,1.472 -1.65,3.568 -2.25,3.223 0,0 -1.319,0.27 -3.22,1.143 -1.902,0.874 -4.649,3.439 -4.649,3.439 l -51.396,-34.928 z"
     fill="#4f64d9"
     id="path168" />
  <path
     opacity="0.2"
     d="m 293.91838,216.773 48.457,32.841 -26.09,-19.967 14.48,-8.36 16.844,9.731 c 0,0 0,15.923 0,17.395 0,1.472 -1.65,3.568 -2.25,3.223 0,0 -1.319,0.27 -3.22,1.143 -1.902,0.874 -4.649,3.439 -4.649,3.439 l -51.396,-34.928 z"
     fill="#000000"
     id="path169" />
  <path
     d="m 272.69138,270.289 v 20.077 c 0.693,0 1.385,-0.143 1.902,-0.451 l 7.037,-4.057 53.594,-30.942 0.011,-20.737 z"
     fill="#ffffff"
     id="path170" />
  <path
     d="m 178.89638,217.992 v 16.669 c 0,1.21 0.858,2.694 1.902,3.299 l 82.964,47.898 7.026,4.057 c 0.517,0.308 1.21,0.451 1.902,0.451 v -18.505 z"
     fill="#f0f0f0"
     id="path171" />
  <path
     d="m 335.22438,254.916 c 0.022,-0.726 0.33,-1.439 0.803,-2.077 0.66,-0.924 1.649,-1.715 2.54,-2.232 0.682,-0.396 1.704,-0.858 2.738,-0.858 0.704,0 1.319,0.052 1.803,0.426 v -20.541 l -7.873,4.545 z"
     fill="#455a64"
     id="path172" />
  <path
     d="m 338.36938,250.733 c -0.837,0.516 -1.73,1.248 -2.342,2.105 -0.473,0.638 -0.781,1.351 -0.803,2.077 l 0.01,-20.011 h 3.134 z"
     fill="#f5f5f5"
     id="path173" />
  <path
     d="m 243.67338,176.164 96.016,55.441 c 0,0 0,0.572 0,1.286 0,0.715 1.001,0.979 2.232,0.264 1.243,-0.715 2.243,-1.605 2.243,-2.837 l 0.121,-1.221 -97.83,-56.475 -0.396,-0.231 c -0.099,0.187 -0.165,0.396 -0.165,0.594 v 0.594 c 0,0.716 -0.99,1.859 -2.221,2.585 z"
     fill="#4f64d9"
     id="path174" />
  <path
     opacity="0.2"
     d="m 243.67338,176.164 96.016,55.441 c 0,0 0,0.572 0,1.286 0,0.715 1.001,0.979 2.232,0.264 1.243,-0.715 2.243,-1.605 2.243,-2.837 l 0.121,-1.221 -97.83,-56.475 -0.396,-0.231 c -0.099,0.187 -0.165,0.396 -0.165,0.594 v 0.594 c 0,0.716 -0.99,1.859 -2.221,2.585 z"
     fill="#000000"
     id="path175" />
  <path
     d="m 275.54838,268.639 62.719,-36.213 c 0.797,-0.418 1.525,-0.753 1.832,-0.592 l -0.41,-0.229 -96.016,-55.441 c 0,0 -0.564,-0.323 -1.122,-0.647 -0.619,-0.359 -1.973,-0.158 -3.025,0.449 l -62.234,35.935 c -1.572,0.913 -1.572,2.397 0,3.299 l 92.544,53.44 c 1.576,0.91 4.134,0.911 5.712,-10e-4 z"
     fill="#4f64d9"
     id="path176" />
  <path
     d="m 246.05938,172.393 0.396,0.231 97.83,56.475 c 0,0 0.066,-0.154 0.209,-0.264 0.088,-0.055 0.198,-0.11 0.33,-0.187 l 0.704,-0.407 c 0.264,-0.154 0.561,-0.33 0.869,-0.506 0.407,-0.231 0.781,-0.187 1.111,0.099 0.044,0.022 0.077,0.055 0.11,0.099 0.11,0.11 0.209,0.253 0.297,0.407 0.099,0.165 0.187,0.352 0.253,0.55 0.077,0.198 0.143,0.418 0.198,0.638 0.055,0.242 0.099,0.484 0.143,0.748 0.033,0.143 0.044,0.297 0.055,0.451 0.011,0.121 0.022,0.231 0.033,0.363 0.022,0.275 0.033,0.561 0.033,0.858 v -2.749 c 0,-1.517 -1.286,-3.486 -2.859,-4.398 l -92.552,-53.44 c -1.583,-0.913 -3.86,-1.066 -5.091,-0.363 l -1.166,0.682 -0.044,0.022 c -0.077,0.055 -0.275,0.165 -0.495,0.286 0,0 -0.011,0 -0.011,0.011 -0.133,0.075 -0.265,0.218 -0.353,0.394 z"
     fill="#4f64d9"
     id="path177" />
  <path
     d="m 275.55038,291.983 3.871,-2.243 58.069,-33.526 c 0.022,-0.726 0.319,-1.44 0.792,-2.078 0.66,-0.924 1.649,-1.715 2.54,-2.232 0.682,-0.396 1.704,-0.858 2.738,-0.858 0.704,0 1.319,0.22 1.803,0.594 0.374,-0.506 1.067,-2.452 1.067,-4.805 h 2.199 c 0,3.035 -1.001,6.081 -2.232,6.785 l -1.111,0.649 c -0.627,0.363 -1.122,0.385 -1.122,0.044 v -0.594 c 0,-0.66 -1.001,-0.627 -2.243,0.088 -1.232,0.715 -2.232,1.825 -2.232,2.485 v 0.594 c 0,0.341 -0.858,1.1 -1.902,1.704 l -56.156,32.427 -6.081,3.508 c 0,0 -0.011,0 -0.011,0.011 -0.792,0.44 -1.814,0.671 -2.848,0.671 v -2.54 c 1.033,-0.003 2.067,-0.223 2.859,-0.684 z"
     fill="#4f64d9"
     id="path178" />
  <path
     opacity="0.4"
     d="m 275.55038,291.983 3.871,-2.243 58.069,-33.526 c 0.022,-0.726 0.319,-1.44 0.792,-2.078 0.66,-0.924 1.649,-1.715 2.54,-2.232 0.682,-0.396 1.704,-0.858 2.738,-0.858 0.704,0 1.319,0.22 1.803,0.594 0.374,-0.506 1.067,-2.452 1.067,-4.805 h 2.199 c 0,3.035 -1.001,6.081 -2.232,6.785 l -1.111,0.649 c -0.627,0.363 -1.122,0.385 -1.122,0.044 v -0.594 c 0,-0.66 -1.001,-0.627 -2.243,0.088 -1.232,0.715 -2.232,1.825 -2.232,2.485 v 0.594 c 0,0.341 -0.858,1.1 -1.902,1.704 l -56.156,32.427 -6.081,3.508 c 0,0 -0.011,0 -0.011,0.011 -0.792,0.44 -1.814,0.671 -2.848,0.671 v -2.54 c 1.033,-0.003 2.067,-0.223 2.859,-0.684 z"
     fill="#000000"
     id="path179" />
  <path
     d="m 275.52838,268.651 c 0,0 0.011,-0.011 0.022,-0.011 l 3.871,-2.243 44.61,-25.741 14.24,-8.225 c 1.012,-0.594 1.836,-0.803 1.891,-0.495 0.011,0.011 0.011,0.022 0.011,0.033 v 0.649 c 0,0.715 1.001,0.715 2.232,0 1.21,-0.693 1.737,-1.55 1.759,-2.243 v -0.704 c 0,-0.363 0.143,-0.737 0.33,-0.836 0.088,-0.055 0.209,-0.121 0.33,-0.187 0.198,-0.11 0.44,-0.253 0.704,-0.407 0.264,-0.154 0.561,-0.33 0.869,-0.506 0.407,-0.231 0.781,-0.187 1.111,0.099 0.044,0.022 0.077,0.055 0.11,0.099 0.077,0.077 0.143,0.165 0.198,0.264 0.044,0.044 0.066,0.088 0.099,0.143 0.099,0.165 0.187,0.352 0.253,0.55 0.077,0.198 0.143,0.418 0.198,0.638 0.055,0.242 0.099,0.484 0.143,0.748 0.033,0.143 0.044,0.297 0.055,0.451 0.011,0.121 0.022,0.231 0.033,0.363 0.022,0.275 0.033,0.561 0.033,0.858 v 14.887 h -2.199 v -14.887 c 0,-0.231 -0.011,-0.462 -0.022,-0.682 l -0.055,-0.55 c 0,-0.022 0,-0.033 -0.011,-0.055 -0.198,1.748 -1.869,3.31 -3.321,4.134 -0.649,0.385 -1.649,0.836 -2.683,0.836 -0.77,0 -1.463,-0.275 -1.968,-0.726 l -0.198,0.11 c -0.132,0.077 -0.253,0.154 -0.385,0.231 l -56.156,32.427 -6.081,3.508 c 0,0 -0.011,0 -0.011,0.011 -0.011,0.011 -0.022,0.011 -0.044,0.022 -0.781,0.429 -1.792,0.649 -2.804,0.649 v -2.538 c 1.135,-0.002 2.038,-0.254 2.836,-0.674 z"
     fill="#4f64d9"
     id="path180" />
  <path
     opacity="0.4"
     d="m 275.52838,268.651 c 0,0 0.011,-0.011 0.022,-0.011 l 3.871,-2.243 44.61,-25.741 14.24,-8.225 c 1.012,-0.594 1.836,-0.803 1.891,-0.495 0.011,0.011 0.011,0.022 0.011,0.033 v 0.649 c 0,0.715 1.001,0.715 2.232,0 1.21,-0.693 1.737,-1.55 1.759,-2.243 v -0.704 c 0,-0.363 0.143,-0.737 0.33,-0.836 0.088,-0.055 0.209,-0.121 0.33,-0.187 0.198,-0.11 0.44,-0.253 0.704,-0.407 0.264,-0.154 0.561,-0.33 0.869,-0.506 0.407,-0.231 0.781,-0.187 1.111,0.099 0.044,0.022 0.077,0.055 0.11,0.099 0.077,0.077 0.143,0.165 0.198,0.264 0.044,0.044 0.066,0.088 0.099,0.143 0.099,0.165 0.187,0.352 0.253,0.55 0.077,0.198 0.143,0.418 0.198,0.638 0.055,0.242 0.099,0.484 0.143,0.748 0.033,0.143 0.044,0.297 0.055,0.451 0.011,0.121 0.022,0.231 0.033,0.363 0.022,0.275 0.033,0.561 0.033,0.858 v 14.887 h -2.199 v -14.887 c 0,-0.231 -0.011,-0.462 -0.022,-0.682 l -0.055,-0.55 c 0,-0.022 0,-0.033 -0.011,-0.055 -0.198,1.748 -1.869,3.31 -3.321,4.134 -0.649,0.385 -1.649,0.836 -2.683,0.836 -0.77,0 -1.463,-0.275 -1.968,-0.726 l -0.198,0.11 c -0.132,0.077 -0.253,0.154 -0.385,0.231 l -56.156,32.427 -6.081,3.508 c 0,0 -0.011,0 -0.011,0.011 -0.011,0.011 -0.022,0.011 -0.044,0.022 -0.781,0.429 -1.792,0.649 -2.804,0.649 v -2.538 c 1.135,-0.002 2.038,-0.254 2.836,-0.674 z"
     fill="#000000"
     id="path181" />
  <path
     d="m 176.11438,213.519 v 2.584 c 0,0.594 0.374,1.177 1.133,1.627 l 0.044,0.022 86.471,49.921 6.07,3.508 v 0.011 c 0,0 0.011,-0.011 0.011,0 0.792,0.44 1.814,0.671 2.848,0.671 v -2.54 c -1.034,0 -2.067,-0.22 -2.859,-0.682 l -3.86,-2.232 h -0.011 l -88.671,-51.208 c -0.839,-0.488 -1.173,-1.058 -1.176,-1.682 z"
     fill="#4f64d9"
     id="path182" />
  <path
     opacity="0.2"
     d="m 176.11438,213.519 v 2.584 c 0,0.594 0.374,1.177 1.133,1.627 l 0.044,0.022 86.471,49.921 6.07,3.508 v 0.011 c 0,0 0.011,-0.011 0.011,0 0.792,0.44 1.814,0.671 2.848,0.671 v -2.54 c -1.034,0 -2.067,-0.22 -2.859,-0.682 l -3.86,-2.232 h -0.011 l -88.671,-51.208 c -0.839,-0.488 -1.173,-1.058 -1.176,-1.682 z"
     fill="#000000"
     id="path183" />
  <path
     d="m 176.11438,236.86 v 2.584 c 0,0.594 0.374,1.177 1.133,1.627 l 0.044,0.022 86.471,49.921 6.07,3.508 v 0.011 c 0,0 0.011,-0.011 0.011,0 0.792,0.44 1.814,0.671 2.848,0.671 v -2.54 c -1.034,0 -2.067,-0.22 -2.859,-0.682 l -3.86,-2.232 h -0.011 l -88.671,-51.208 c -0.839,-0.487 -1.173,-1.058 -1.176,-1.682 z"
     fill="#4f64d9"
     id="path184" />
  <path
     opacity="0.2"
     d="m 176.11438,236.86 v 2.584 c 0,0.594 0.374,1.177 1.133,1.627 l 0.044,0.022 86.471,49.921 6.07,3.508 v 0.011 c 0,0 0.011,-0.011 0.011,0 0.792,0.44 1.814,0.671 2.848,0.671 v -2.54 c -1.034,0 -2.067,-0.22 -2.859,-0.682 l -3.86,-2.232 h -0.011 l -88.671,-51.208 c -0.839,-0.487 -1.173,-1.058 -1.176,-1.682 z"
     fill="#000000"
     id="path185" />
  <path
     d="m 216.05338,146.128 -9.173,16.363 13.378,7.119 9.736,-14.496 z"
     fill="#ffa8a7"
     id="path186" />
  <path
     d="m 248.62838,109.282 c -5.1,-0.871 -12.825,-1.103 -17.846,7.511 -5.022,8.614 -15.837,29.859 -15.837,29.859 0,0 6.323,8.182 15.468,9.668 l 14.951,-23.722 z"
     fill="#4f64d9"
     id="path187" />
  <path
     d="m 236.57938,309.639 h -11.419 v 19.549 h 11.419 z"
     fill="#ffa8a7"
     id="path188" />
  <path
     d="m 203.51138,304.877 -11.413,0.393 -0.572,-20.688 11.413,-0.392 z"
     fill="#ffa8a7"
     id="path189" />
  <path
     d="m 225.16038,323.551 v -1.633 c -1.093,0.476 -3.631,10.162 -8.162,14.294 -3.602,3.285 -8.516,7.08 -9.765,10.743 -1.3,3.809 6.843,5.912 10.208,5.316 3.91,-0.692 10.687,-3.446 12.389,-5.998 1.701,-2.552 2.498,-6.317 3.88,-8.188 1.382,-1.87 4.569,-3.959 5.316,-6.124 0.411,-1.189 -0.077,-3.794 -0.654,-5.995 -0.529,-2.019 -1.103,-4.239 -1.792,-4.05 -0.002,0.246 0,1.245 0,1.245 -0.829,0.919 -3.123,1.831 -5.709,1.93 -1.672,0.066 -5.725,-0.266 -5.711,-1.54 z"
     fill="#263238"
     id="path190" />
  <path
     d="m 191.97738,301.749 c -0.593,0.021 -1.076,0.857 -2.383,2.273 -1.581,1.711 -4.166,3.556 -6.717,4.833 -4.276,2.14 -12.589,5.433 -16.352,7.128 -2.351,1.059 -2.24,3.898 0.189,5.514 2.43,1.616 8.296,2.78 15.339,1.205 3.837,-0.858 8.832,-4.402 11.993,-4.211 3.161,0.191 9.077,0.146 11.411,-1.463 2.334,-1.608 1.4,-5.044 0.74,-7.996 -0.72,-3.222 -1.75,-8.151 -2.817,-7.931 l 0.035,1.013 c -1.373,2.079 -8.362,2.928 -11.378,1.398 z"
     fill="#263238"
     id="path191" />
  <path
     d="m 282.57738,190.75 c 2.502,17.647 -0.869,21.035 -17.642,37.939 -9.019,9.089 -23.554,22.424 -23.554,22.424 0,0 0.21,5.635 0.329,18.274 0.104,11.131 -4.549,47.355 -4.549,47.355 0,0 -7.576,3.187 -12.778,-0.121 0,0 -2.349,-26.949 -3.616,-40.987 -1.72,-19.041 -2.622,-28.579 -1.649,-32.677 0.857,-3.611 17.93,-25.162 21.868,-31.211 l -36.277,21.074 c 0,0 1.237,9.229 1.056,16.109 -0.398,15.11 -2.253,45.288 -2.253,45.288 0,0 -8.307,3.717 -12.427,0.513 0,0 -10.452,-65.999 -10.452,-71.416 0,-8.231 35.746,-32.8 42.511,-38.522 3.861,-3.265 8.167,-6.752 8.167,-6.752 z"
     fill="#455a64"
     id="path192" />
  <path
     d="m 240.98638,211.746 c 0,0 -5.82,-4.302 -8.289,-11.823 0,0 0.311,5.068 1.292,8.993 0.981,3.924 -29.279,23.905 -29.279,23.905 z"
     fill="#37474f"
     id="path193" />
  <path
     d="m 261.15438,77.722 c 2.043,-8.717 -3.367,-17.44 -12.085,-19.483 -8.717,-2.043 -17.44,3.367 -19.483,12.084 -2.043,8.717 3.367,17.441 12.084,19.484 8.717,2.043 17.441,-3.367 19.484,-12.085 z"
     fill="#263238"
     id="path194" />
  <path
     d="m 279.42638,119.101 c 0,0 4.009,3.277 4.009,13.637 v 22.374 l -0.573,37.619 c -8.008,8.712 -44.026,5.408 -52.908,-13.588 0,0 0.07,-39.717 0.07,-48.612 0,-8.895 4.957,-20.457 18.603,-21.25 l 17.618,4.099 z"
     fill="#263238"
     id="path195" />
  <path
     d="m 273.38738,85.54 c 0,0 -2.627,12.342 -3.68,14.37 -1.054,2.028 -3.23,2.604 -3.23,2.604 l 0.184,-8.682 z"
     fill="#263238"
     id="path196" />
  <path
     d="m 270.09038,67.859 c 0,0 2.829,-0.485 5.035,1.77 2.162,2.211 0.955,9.132 -1.738,15.911 l -4.948,0.568 z"
     fill="#263238"
     id="path197" />
  <path
     d="m 266.95438,86.112 c 0.992,0.593 2.408,-1.313 3.632,-2.594 1.223,-1.28 5.218,-3.03 7.211,1.169 2.03,4.279 -1.759,9.933 -4.904,10.92 -5.42,1.701 -6.233,-1.775 -6.233,-1.775 l -0.414,19.549 c -4.671,5.218 -20.644,3.973 -17.633,-0.517 l 0.015,-5.95 c 0,0 -4.911,0.745 -7.306,0.375 -3.986,-0.616 -6.493,-3.761 -7.702,-8.075 -1.942,-6.93 -2.679,-12.525 -1.032,-26.153 1.806,-14.938 19.18,-15.093 28.562,-9.188 9.382,5.905 5.804,22.239 5.804,22.239 z"
     fill="#ffa8a7"
     id="path198" />
  <path
     d="m 253.15038,89.531 h -0.854 c -3.049,0 -5.529,-2.48 -5.529,-5.53 0,-3.049 2.48,-5.529 5.529,-5.529 h 0.854 c 3.049,0 5.53,2.48 5.53,5.529 0,3.049 -2.48,5.53 -5.53,5.53 z m -0.854,-10.127 c -2.534,0 -4.597,2.062 -4.597,4.597 0,2.535 2.063,4.597 4.597,4.597 h 0.854 c 2.535,0 4.598,-2.062 4.598,-4.597 0,-2.535 -2.063,-4.597 -4.598,-4.597 z"
     fill="#263238"
     id="path199" />
  <path
     d="m 236.29038,89.531 h -0.854 c -3.049,0 -5.529,-2.48 -5.529,-5.53 0,-3.049 2.48,-5.529 5.529,-5.529 h 0.854 c 3.049,0 5.53,2.48 5.53,5.529 0,3.049 -2.481,5.53 -5.53,5.53 z m -0.854,-10.127 c -2.534,0 -4.596,2.062 -4.596,4.597 0,2.535 2.063,4.597 4.596,4.597 h 0.854 c 2.535,0 4.597,-2.062 4.597,-4.597 0,-2.535 -2.062,-4.597 -4.597,-4.597 z"
     fill="#263238"
     id="path200" />
  <path
     d="m 246.83538,82.91 c -0.512,-0.84 -1.658,-1.424 -2.921,-1.488 -1.088,-0.056 -2.048,0.304 -2.549,0.962 l -0.743,-0.564 c 0.697,-0.918 1.912,-1.403 3.339,-1.329 1.586,0.081 2.992,0.822 3.67,1.934 z"
     fill="#263238"
     id="path201" />
  <path
     d="m 269.93238,82.866 h -11.764 v 0.932 h 11.764 z"
     fill="#263238"
     id="path202" />
  <path
     d="m 266.95438,87.781 c 0.499,0.01 2.397,-3.139 3.632,-4.263 1.711,-1.557 -0.496,-15.659 -0.496,-15.659 0,0 1.645,-3.505 -1.651,-7.133 -2.345,-2.58 -6.263,-2.867 -12.953,-3.918 -3.51,-0.552 -8.831,-1.534 -12.336,-2.186 -4.186,-0.778 -7.65,-1.602 -10.605,0.966 -2.3,1.999 -3.29,5.531 -2.052,8.315 0.29,0.653 0.711,1.243 1.189,1.774 0.847,0.942 1.806,1.684 3.012,2.075 0,0 1.825,1.619 8.174,2.392 6.349,0.773 16.238,-0.149 17.589,-0.333 1.841,-0.252 2.234,1.532 3.227,6.407 0.87,4.279 1.593,11.531 3.27,11.563 z"
     fill="#382626"
     id="path203" />
  <path
     d="m 270.08038,68.955 5.999,-3.221 c -0.851,-1.719 -2.885,-2.392 -4.541,-1.502 -1.657,0.89 -2.31,3.004 -1.458,4.723 z"
     fill="#263238"
     id="path204" />
  <path
     d="m 248.62838,106.915 c 0,0 8.897,-1.792 12.008,-3.446 2.082,-1.107 3.797,-3.025 4.3,-4.254 0,0 -0.583,2.64 -2.443,5.018 -2.275,2.908 -13.865,5.05 -13.865,5.05 z"
     fill="#f28f8f"
     id="path205" />
  <path
     d="m 250.76638,83.887 c 0,1.023 0.798,1.85 1.783,1.848 0.985,-0.003 1.783,-0.834 1.783,-1.857 0,-1.023 -0.798,-1.85 -1.783,-1.848 -0.985,0.003 -1.783,0.835 -1.783,1.857 z"
     fill="#263238"
     id="path206" />
  <path
     d="m 253.62938,76.506 3.814,2.105 c 0.563,-1.096 0.164,-2.456 -0.889,-3.037 -1.053,-0.581 -2.362,-0.164 -2.925,0.932 z"
     fill="#263238"
     id="path207" />
  <path
     d="m 249.43338,96.204 -4.07,1.527 c 0.403,1.167 1.641,1.771 2.765,1.349 1.124,-0.422 1.708,-1.709 1.305,-2.876 z"
     fill="#f28f8f"
     id="path208" />
  <path
     d="m 234.41038,78.075 3.478,-2.679 c -0.71,-0.996 -2.063,-1.203 -3.024,-0.464 -0.96,0.74 -1.164,2.147 -0.454,3.143 z"
     fill="#263238"
     id="path209" />
  <path
     d="m 235.93738,83.38 c 0,1.023 0.798,1.85 1.783,1.847 0.984,-0.003 1.783,-0.834 1.783,-1.857 0,-1.023 -0.798,-1.85 -1.783,-1.848 -0.984,0.003 -1.783,0.835 -1.783,1.858 z"
     fill="#263238"
     id="path210" />
  <path
     d="m 244.74938,81.949 -0.207,10.812 -6.391,-1.408 z"
     fill="#f28f8f"
     id="path211" />
  <path
     d="m 233.82238,171.817 v 1.031 c 0,1.04 -0.556,2.004 -1.453,2.524 l -27.772,15.982 c -0.449,0.26 -0.953,0.387 -1.458,0.387 -0.5,0 -1.005,-0.127 -1.453,-0.387 l -50.946,-29.412 c -0.902,-0.52 -1.458,-1.484 -1.458,-2.524 v -0.709 l 53.858,31.095 z"
     fill="#4f64d9"
     id="path212" />
  <path
     opacity="0.6"
     d="m 233.82238,171.817 v 1.031 c 0,1.04 -0.556,2.004 -1.453,2.524 l -27.772,15.982 c -0.449,0.26 -0.953,0.387 -1.458,0.387 -0.5,0 -1.005,-0.127 -1.453,-0.387 l -50.946,-29.412 c -0.902,-0.52 -1.458,-1.484 -1.458,-2.524 v -0.709 l 53.858,31.095 z"
     fill="#000000"
     id="path213" />
  <path
     d="m 149.28038,158.708 30.208,-17.439 c 0.537,-0.31 1.199,-0.31 1.736,0 l 52.405,30.26 c 0.257,0.149 0.257,0.52 0,0.668 l -30.491,17.607 z"
     fill="#4f64d9"
     id="path214" />
  <path
     opacity="0.5"
     d="m 149.28038,158.708 30.208,-17.439 c 0.537,-0.31 1.199,-0.31 1.736,0 l 52.405,30.26 c 0.257,0.149 0.257,0.52 0,0.668 l -30.491,17.607 z"
     fill="#000000"
     id="path215" />
  <path
     d="m 203.41638,187.24 16.293,-9.397 -47.64,-27.506 -16.378,9.348 z"
     fill="#263238"
     id="path216" />
  <path
     d="m 211.42438,161.1 -0.3,0.173 -7.986,4.61 -14.201,-8.2 -0.296,-0.168 8.286,-4.783 z"
     fill="#263238"
     id="path217" />
  <path
     d="m 211.12438,161.273 -7.986,4.61 -14.201,-8.2 7.99,-4.61 z"
     fill="#263238"
     id="path218" />
  <path
     opacity="0.7"
     d="m 203.13838,189.803 v 1.938 c -0.5,0 -1.005,-0.127 -1.453,-0.387 l -50.946,-29.412 c -0.902,-0.52 -1.458,-1.484 -1.458,-2.524 v -0.709 z"
     fill="#000000"
     id="path219" />
  <path
     d="m 202.31738,190.233 c -0.964,0.372 -2.06,0.301 -2.973,-0.23 l -50.722,-29.285 c -0.892,-0.515 -1.504,-1.397 -1.678,-2.412 l -5.553,-33.114 c -0.031,-0.188 -0.046,-0.377 -0.046,-0.566 0,-0.923 0.367,-1.805 1.02,-2.453 l 52.711,30.437 c 0.658,0.383 1.112,1.035 1.239,1.785 z"
     fill="#4f64d9"
     id="path220" />
  <path
     opacity="0.5"
     d="m 202.31738,190.233 c -0.964,0.372 -2.06,0.301 -2.973,-0.23 l -50.722,-29.285 c -0.892,-0.515 -1.504,-1.397 -1.678,-2.412 l -5.553,-33.114 c -0.031,-0.188 -0.046,-0.377 -0.046,-0.566 0,-0.923 0.367,-1.805 1.02,-2.453 l 52.711,30.437 c 0.658,0.383 1.112,1.035 1.239,1.785 z"
     fill="#000000"
     id="path221" />
  <path
     d="m 203.13838,189.805 -0.347,0.199 c -0.153,0.087 -0.311,0.163 -0.474,0.23 l -6.002,-35.838 c -0.127,-0.75 -0.581,-1.402 -1.239,-1.785 l -52.711,-30.437 c 0.204,-0.204 0.444,-0.382 0.704,-0.535 l 52.818,30.493 c 0.658,0.382 1.112,1.035 1.239,1.785 z"
     fill="#e0e0e0"
     id="path222" />
  <path
     d="m 173.75038,159.664 c -0.372,-2.217 -2.661,-5.162 -5.112,-6.577 -2.452,-1.415 -4.138,-0.765 -3.766,1.452 0.372,2.217 2.661,5.162 5.113,6.577 2.451,1.415 4.137,0.765 3.765,-1.452 z"
     fill="#4f64d9"
     id="path223" />
  <path
     d="m 184.14038,181.219 c -0.002,-0.039 -0.087,-1.82 -0.854,-4.248 -0.775,-2.455 -3.101,-11.887 -8.398,-13.308 -0.628,-0.169 -1.303,-0.234 -1.938,-0.061 -1.473,0.401 -2.145,1.928 -2.433,3.296 -0.423,2.008 -0.148,4.077 -0.034,6.102 -0.812,-0.929 -1.769,-1.729 -2.824,-2.367 -1.003,-0.606 -2.043,-1.238 -3.251,-1.162 -0.326,0.02 -0.693,0.111 -0.85,0.398 -0.194,0.356 0.043,0.789 0.301,1.101 0.53,0.642 1.178,1.179 1.703,1.825 0.439,0.541 0.785,1.149 1.154,1.74 0.671,1.076 1.422,2.099 2.171,3.122 1.53,2.086 3.171,4.08 5.338,5.524 1.342,0.894 4.544,2.755 8.002,3.187 3.866,0.483 7.628,0.425 10.071,-0.432 z"
     fill="#ffa8a7"
     id="path224" />
  <path
     d="m 278.36938,119.387 c -3.576,-1.834 -8.793,5.453 -7.132,13.073 1.661,7.62 9.84,34.405 9.84,34.405 0,0 -36.952,3.308 -40.09,3.691 -2.188,0.267 -4.639,-0.845 -6.666,-1.517 -2.766,-0.917 -5.548,-1.556 -8.271,-2.562 -0.488,-0.18 -0.997,-0.364 -1.515,-0.314 -0.518,0.05 -1.046,0.408 -1.109,0.924 -0.038,0.309 0.091,0.612 0.228,0.891 0.868,1.771 2.193,3.316 3.811,4.443 0.753,0.524 1.586,0.965 2.243,1.616 0.435,0.431 1.378,1.618 1.034,2.271 l -14.686,8.451 c 0,0 3.386,2.942 15.624,-0.488 8.453,-2.369 12.864,-4.572 12.864,-4.572 0,0 43.546,1.811 51.409,-0.576 2.78,-0.844 3.786,-2.813 1.907,-11.778 -2.182,-10.413 -8.35,-29.35 -9.754,-34.317 -3.071,-10.854 -3.824,-10.608 -9.737,-13.641 z"
     fill="#ffa8a7"
     id="path225" />
  <path
     d="m 276.52838,117.843 c 0,0 5.895,1.655 8.435,4.977 2.45,3.203 12.381,35.668 12.381,35.668 0,0 -7.619,7.046 -18.657,5.012 0,0 -7.885,-22.354 -8.722,-28.321 -1.527,-9.255 2.992,-16.536 6.563,-17.336 z"
     fill="#4f64d9"
     id="path226" />
  <path
     d="m 244.68338,139.517 c -0.474,-2.499 1.088,-3.845 3.489,-3.006 2.401,0.839 4.733,3.544 5.207,6.044 0.474,2.498 -8.222,-0.539 -8.696,-3.038 z"
     fill="#4f64d9"
     id="path227" />
  <path
     d="m 261.17638,147.305 -7.095,-4.506 c 0.365,1.923 -2.226,1.654 -4.556,0.841 -2.329,-0.814 -5.18,-2.446 -5.544,-4.368 l -6.183,-0.079 c -0.566,-0.007 -0.579,0.736 -0.029,1.351 1.53,1.71 5.084,4.733 12.563,7.345 7.489,2.616 10.357,1.805 11.433,0.988 0.383,-0.292 0.062,-1.159 -0.589,-1.572 z"
     fill="#4f64d9"
     id="path228" />
</svg>
